<?xml version="1.0" encoding="UTF-8" standalone="no"?>
<!-- Created with Inkscape (http://www.inkscape.org/) -->

<svg
   xmlns:dc="http://purl.org/dc/elements/1.1/"
   xmlns:cc="http://creativecommons.org/ns#"
   xmlns:rdf="http://www.w3.org/1999/02/22-rdf-syntax-ns#"
   xmlns:svg="http://www.w3.org/2000/svg"
   xmlns="http://www.w3.org/2000/svg"
   xmlns:sodipodi="http://sodipodi.sourceforge.net/DTD/sodipodi-0.dtd"
   xmlns:inkscape="http://www.inkscape.org/namespaces/inkscape"
   width="113.92281mm"
   height="59.591213mm"
   viewBox="0 0 113.92281 59.591213"
   version="1.1"
   id="svg4926"
   inkscape:version="0.92.4 5da689c313, 2019-01-14"
   sodipodi:docname="adaptive-discretization.svg">
  <defs
     id="defs4920">
    <marker
       inkscape:isstock="true"
       style="overflow:visible"
       id="marker7728"
       refX="0"
       refY="0"
       orient="auto"
       inkscape:stockid="Arrow2Sstart">
      <path
         transform="matrix(0.3,0,0,0.3,-0.69,0)"
         d="M 8.7185878,4.0337352 -2.2072895,0.01601326 8.7185884,-4.0017078 c -1.7454984,2.3720609 -1.7354408,5.6174519 -6e-7,8.035443 z"
         style="fill:#ff0000;fill-opacity:1;fill-rule:evenodd;stroke:#ff0000;stroke-width:0.625;stroke-linejoin:round;stroke-opacity:1"
         id="path7726"
         inkscape:connector-curvature="0" />
    </marker>
    <marker
       inkscape:stockid="Arrow1Send"
       orient="auto"
       refY="0"
       refX="0"
       id="marker6813"
       style="overflow:visible"
       inkscape:isstock="true">
      <path
         id="path6811"
         d="M 0,0 5,-5 -12.5,0 5,5 Z"
         style="fill:#ff0000;fill-opacity:1;fill-rule:evenodd;stroke:#ff0000;stroke-width:1.00000003pt;stroke-opacity:1"
         transform="matrix(-0.2,0,0,-0.2,-1.2,0)"
         inkscape:connector-curvature="0" />
    </marker>
    <marker
       inkscape:stockid="Arrow2Send"
       orient="auto"
       refY="0"
       refX="0"
       id="marker6659"
       style="overflow:visible"
       inkscape:isstock="true">
      <path
         id="path6657"
         style="fill:#ff0000;fill-opacity:1;fill-rule:evenodd;stroke:#ff0000;stroke-width:0.625;stroke-linejoin:round;stroke-opacity:1"
         d="M 8.7185878,4.0337352 -2.2072895,0.01601326 8.7185884,-4.0017078 c -1.7454984,2.3720609 -1.7354408,5.6174519 -6e-7,8.035443 z"
         transform="matrix(-0.3,0,0,-0.3,0.69,0)"
         inkscape:connector-curvature="0" />
    </marker>
    <marker
       inkscape:stockid="Arrow2Sstart"
       orient="auto"
       refY="0"
       refX="0"
       id="marker6589"
       style="overflow:visible"
       inkscape:isstock="true">
      <path
         id="path6587"
         style="fill:#ff0000;fill-opacity:1;fill-rule:evenodd;stroke:#ff0000;stroke-width:0.625;stroke-linejoin:round;stroke-opacity:1"
         d="M 8.7185878,4.0337352 -2.2072895,0.01601326 8.7185884,-4.0017078 c -1.7454984,2.3720609 -1.7354408,5.6174519 -6e-7,8.035443 z"
         transform="matrix(0.3,0,0,0.3,-0.69,0)"
         inkscape:connector-curvature="0" />
    </marker>
    <marker
       inkscape:stockid="Arrow2Sstart"
       orient="auto"
       refY="0"
       refX="0"
       id="Arrow2Sstart"
       style="overflow:visible"
       inkscape:isstock="true">
      <path
         id="path5695"
         style="fill:#ff0000;fill-opacity:1;fill-rule:evenodd;stroke:#ff0000;stroke-width:0.625;stroke-linejoin:round;stroke-opacity:1"
         d="M 8.7185878,4.0337352 -2.2072895,0.01601326 8.7185884,-4.0017078 c -1.7454984,2.3720609 -1.7354408,5.6174519 -6e-7,8.035443 z"
         transform="matrix(0.3,0,0,0.3,-0.69,0)"
         inkscape:connector-curvature="0" />
    </marker>
    <marker
       inkscape:stockid="Arrow2Send"
       orient="auto"
       refY="0"
       refX="0"
       id="Arrow2Send"
       style="overflow:visible"
       inkscape:isstock="true">
      <path
         id="path5698"
         style="fill:#ff0000;fill-opacity:1;fill-rule:evenodd;stroke:#ff0000;stroke-width:0.625;stroke-linejoin:round;stroke-opacity:1"
         d="M 8.7185878,4.0337352 -2.2072895,0.01601326 8.7185884,-4.0017078 c -1.7454984,2.3720609 -1.7354408,5.6174519 -6e-7,8.035443 z"
         transform="matrix(-0.3,0,0,-0.3,0.69,0)"
         inkscape:connector-curvature="0" />
    </marker>
    <marker
       inkscape:stockid="Arrow1Send"
       orient="auto"
       refY="0"
       refX="0"
       id="marker6347"
       style="overflow:visible"
       inkscape:isstock="true">
      <path
         id="path6345"
         d="M 0,0 5,-5 -12.5,0 5,5 Z"
         style="fill:#ff0000;fill-opacity:1;fill-rule:evenodd;stroke:#ff0000;stroke-width:1.00000003pt;stroke-opacity:1"
         transform="matrix(-0.2,0,0,-0.2,-1.2,0)"
         inkscape:connector-curvature="0" />
    </marker>
    <marker
       inkscape:stockid="Arrow2Mend"
       orient="auto"
       refY="0"
       refX="0"
       id="Arrow2Mend"
       style="overflow:visible"
       inkscape:isstock="true">
      <path
         id="path5692"
         style="fill:#ff0000;fill-opacity:1;fill-rule:evenodd;stroke:#ff0000;stroke-width:0.625;stroke-linejoin:round;stroke-opacity:1"
         d="M 8.7185878,4.0337352 -2.2072895,0.01601326 8.7185884,-4.0017078 c -1.7454984,2.3720609 -1.7354408,5.6174519 -6e-7,8.035443 z"
         transform="scale(-0.6)"
         inkscape:connector-curvature="0" />
    </marker>
    <marker
       inkscape:stockid="Arrow1Send"
       orient="auto"
       refY="0"
       refX="0"
       id="Arrow1Send"
       style="overflow:visible"
       inkscape:isstock="true">
      <path
         id="path5680"
         d="M 0,0 5,-5 -12.5,0 5,5 Z"
         style="fill:#ff0000;fill-opacity:1;fill-rule:evenodd;stroke:#ff0000;stroke-width:1.00000003pt;stroke-opacity:1"
         transform="matrix(-0.2,0,0,-0.2,-1.2,0)"
         inkscape:connector-curvature="0" />
    </marker>
    <marker
       inkscape:isstock="true"
       style="overflow:visible"
       id="marker6009"
       refX="0"
       refY="0"
       orient="auto"
       inkscape:stockid="Arrow2Mstart">
      <path
         transform="scale(0.6)"
         d="M 8.7185878,4.0337352 -2.2072895,0.01601326 8.7185884,-4.0017078 c -1.7454984,2.3720609 -1.7354408,5.6174519 -6e-7,8.035443 z"
         style="fill:#ff0000;fill-opacity:1;fill-rule:evenodd;stroke:#ff0000;stroke-width:0.625;stroke-linejoin:round;stroke-opacity:1"
         id="path6007"
         inkscape:connector-curvature="0" />
    </marker>
    <marker
       inkscape:isstock="true"
       style="overflow:visible"
       id="marker5949"
       refX="0"
       refY="0"
       orient="auto"
       inkscape:stockid="Arrow2Mend">
      <path
         transform="scale(-0.6)"
         d="M 8.7185878,4.0337352 -2.2072895,0.01601326 8.7185884,-4.0017078 c -1.7454984,2.3720609 -1.7354408,5.6174519 -6e-7,8.035443 z"
         style="fill:#ff0000;fill-opacity:1;fill-rule:evenodd;stroke:#ff0000;stroke-width:0.625;stroke-linejoin:round;stroke-opacity:1"
         id="path5947"
         inkscape:connector-curvature="0" />
    </marker>
    <marker
       inkscape:stockid="Arrow2Sstart"
       orient="auto"
       refY="0"
       refX="0"
       id="Arrow2Sstart-7"
       style="overflow:visible"
       inkscape:isstock="true">
      <path
         id="path5695-0"
         style="fill:#ff0000;fill-opacity:1;fill-rule:evenodd;stroke:#ff0000;stroke-width:0.625;stroke-linejoin:round;stroke-opacity:1"
         d="M 8.7185878,4.0337352 -2.2072895,0.01601326 8.7185884,-4.0017078 c -1.7454984,2.3720609 -1.7354408,5.6174519 -6e-7,8.035443 z"
         transform="matrix(0.3,0,0,0.3,-0.69,0)"
         inkscape:connector-curvature="0" />
    </marker>
    <marker
       inkscape:stockid="Arrow2Send"
       orient="auto"
       refY="0"
       refX="0"
       id="Arrow2Send-9"
       style="overflow:visible"
       inkscape:isstock="true">
      <path
         id="path5698-3"
         style="fill:#ff0000;fill-opacity:1;fill-rule:evenodd;stroke:#ff0000;stroke-width:0.625;stroke-linejoin:round;stroke-opacity:1"
         d="M 8.7185878,4.0337352 -2.2072895,0.01601326 8.7185884,-4.0017078 c -1.7454984,2.3720609 -1.7354408,5.6174519 -6e-7,8.035443 z"
         transform="matrix(-0.3,0,0,-0.3,0.69,0)"
         inkscape:connector-curvature="0" />
    </marker>
    <marker
       inkscape:stockid="Arrow1Send"
       orient="auto"
       refY="0"
       refX="0"
       id="marker6813-6"
       style="overflow:visible"
       inkscape:isstock="true">
      <path
         id="path6811-0"
         d="M 0,0 5,-5 -12.5,0 5,5 Z"
         style="fill:#ff0000;fill-opacity:1;fill-rule:evenodd;stroke:#ff0000;stroke-width:1.00000003pt;stroke-opacity:1"
         transform="matrix(-0.2,0,0,-0.2,-1.2,0)"
         inkscape:connector-curvature="0" />
    </marker>
    <marker
       inkscape:isstock="true"
       style="overflow:visible"
       id="marker7728-6"
       refX="0"
       refY="0"
       orient="auto"
       inkscape:stockid="Arrow2Sstart">
      <path
         transform="matrix(0.3,0,0,0.3,-0.69,0)"
         d="M 8.7185878,4.0337352 -2.2072895,0.01601326 8.7185884,-4.0017078 c -1.7454984,2.3720609 -1.7354408,5.6174519 -6e-7,8.035443 z"
         style="fill:#ff0000;fill-opacity:1;fill-rule:evenodd;stroke:#ff0000;stroke-width:0.625;stroke-linejoin:round;stroke-opacity:1"
         id="path7726-2"
         inkscape:connector-curvature="0" />
    </marker>
    <marker
       inkscape:stockid="Arrow1Send"
       orient="auto"
       refY="0"
       refX="0"
       id="Arrow1Send-6"
       style="overflow:visible"
       inkscape:isstock="true">
      <path
         id="path5680-1"
         d="M 0,0 5,-5 -12.5,0 5,5 Z"
         style="fill:#ff0000;fill-opacity:1;fill-rule:evenodd;stroke:#ff0000;stroke-width:1.00000003pt;stroke-opacity:1"
         transform="matrix(-0.2,0,0,-0.2,-1.2,0)"
         inkscape:connector-curvature="0" />
    </marker>
  </defs>
  <sodipodi:namedview
     id="base"
     pagecolor="#ffffff"
     bordercolor="#666666"
     borderopacity="1.0"
     inkscape:pageopacity="0.0"
     inkscape:pageshadow="2"
     inkscape:zoom="0.7"
     inkscape:cx="-124.42905"
     inkscape:cy="536.41553"
     inkscape:document-units="mm"
     inkscape:current-layer="layer1"
     showgrid="false"
     inkscape:window-width="1920"
     inkscape:window-height="1023"
     inkscape:window-x="0"
     inkscape:window-y="29"
     inkscape:window-maximized="1"
     fit-margin-top="0"
     fit-margin-left="0"
     fit-margin-right="0"
     fit-margin-bottom="0" />
  <metadata
     id="metadata4923">
    <rdf:RDF>
      <cc:Work
         rdf:about="">
        <dc:format>image/svg+xml</dc:format>
        <dc:type
           rdf:resource="http://purl.org/dc/dcmitype/StillImage" />
        <dc:title></dc:title>
      </cc:Work>
    </rdf:RDF>
  </metadata>
  <g
     inkscape:label="Capa 1"
     inkscape:groupmode="layer"
     id="layer1"
     transform="translate(103.37451,44.374475)">
    <g
       id="g13493"
       transform="translate(-475.6635,-987.32209)">
      <path
         d="m 375.46068,988.11128 0.13049,-0.31984 0.18935,-0.38446 0.1305,-0.38253 0.12729,-0.38509 0.19255,-0.31984 0.1273,-0.38189 0.12729,-0.38509 0.19255,-0.31985 0.1273,-0.38444 0.19254,-0.38254 0.1273,-0.31984 0.19255,-0.38509 0.12729,-0.38189 0.19255,-0.31985 0.1273,-0.38508 0.12729,-0.31985 0.19255,-0.38445 0.19255,-0.38254 0.12729,-0.31983 0.19255,-0.3851 0.1273,-0.31985 0.19254,-0.38188 0.1273,-0.31984 0.19255,-0.3851 0.12729,-0.31984 0.19254,-0.38445 0.19255,-0.31985 0.12729,-0.38253 0.19255,-0.31984 0.1273,-0.31984 0.19254,-0.38509 0.18935,-0.31985 0.1305,-0.38188 0.18935,-0.31985 0.19254,-0.31984 0.19254,-0.38509 0.12731,-0.31985 0.19254,-0.31984 0.19254,-0.38445 0.1273,-0.31984 0.19255,-0.31985 0.19254,-0.31985 0.18935,-0.38252 0.1305,-0.31984 0.18934,-0.31985 0.19254,-0.31984 0.19255,-0.38509 0.19255,-0.31984 0.19255,-0.31984 0.12729,-0.31986 0.19255,-0.31984 0.18934,-0.31984 0.19255,-0.31984 0.19254,-0.38189 0.19255,-0.31985 0.19255,-0.31984 0.18934,-0.31984 0.13049,-0.31985 0.18935,-0.31983 0.19255,-0.31984 0.19255,-0.31985 0.19254,-0.31985 0.19254,-0.31984 0.18935,-0.31984 0.19255,-0.31984 0.19255,-0.31984 0.19253,-0.2578 0.19255,-0.31984 0.18935,-0.31984 0.19255,-0.31985 0.19254,-0.31984 0.19254,-0.31985 0.19255,-0.31984 0.18935,-0.25459 0.19254,-0.31985 0.19255,-0.31984 0.19254,-0.31984 0.2546,-0.25715 0.19254,-0.31985 0.19255,-0.31984 0.19255,-0.31985 0.18934,-0.25523 0.19255,-0.31984 0.19254,-0.31985 0.19255,-0.25459 0.25459,-0.31984 0.19255,-0.25779 0.19255,-0.31985 0.19253,-0.31984 0.18935,-0.2546 0.2578,-0.31984 m -0.2578,0.31984 h 0.19255 l 0.25779,0.0627 h 0.18935 l 0.19255,0.0646 h 0.38508 l 0.19255,0.0653 h 0.3819 l 0.25779,0.0621 h 0.18935 l 0.19254,0.0653 h 0.38509 l 0.19255,0.0627 h 0.25459 l 0.19255,0.0646 h 0.38189 l 0.25779,0.0653 h 0.38189 l 0.19255,0.0621 h 0.44714 l 0.19254,0.0652 h 0.44714 l 0.19255,0.0627 h 0.19255 l 0.25459,0.0646 h 0.38509 l 0.2546,0.0653 h 0.38509 l 0.25459,0.0621 h 0.3851 l 0.25459,0.0652 h 0.63968 l 0.19255,0.0627 h 0.44714 l 0.19254,0.0646 h 0.44715 l 0.25779,0.0652 h 0.44714 l 0.19254,0.0621 h 0.70173 l 0.19255,0.0653 h 0.44714 l 0.19255,0.0627 h 0.70493 l 0.19254,0.0646 h 0.5092 l 0.19254,0.0652 h 0.70493 l 0.19255,0.0621 h 0.70173 l 0.2578,0.0653 h 0.63968 l 0.2546,0.0627 h 0.70493 l 0.18935,0.0646 h 0.95953 l 0.19254,0.0653 h 0.70494 m -8.89355,30.57507 0.1305,-0.38253 0.0621,-0.31985 0.0653,-0.38509 0.0621,-0.3819 0.13049,-0.38508 0.0621,-0.38445 0.0653,-0.38253 0.1273,-0.31985 0.0653,-0.38508 0.0621,-0.3819 0.0653,-0.38509 0.1273,-0.31984 0.0653,-0.38446 0.0621,-0.38253 0.1273,-0.38509 0.0653,-0.31984 0.0653,-0.3819 0.12731,-0.38508 0.0621,-0.31984 0.1305,-0.38445 0.0621,-0.38254 0.0653,-0.31985 0.1273,-0.38508 0.0653,-0.31985 0.1273,-0.38189 0.0621,-0.3851 0.0653,-0.31983 0.1273,-0.38446 0.0653,-0.31983 0.1273,-0.38254 0.0653,-0.31984 0.0621,-0.3851 0.1273,-0.31984 0.0653,-0.38189 0.12729,-0.31984 0.0653,-0.38509 0.12729,-0.31985 0.0652,-0.38445 0.12731,-0.31984 0.0621,-0.31984 0.1305,-0.38254 0.0621,-0.31984 0.12731,-0.38509 0.0652,-0.31984 0.12729,-0.31984 0.0652,-0.3819 0.1273,-0.31984 0.0652,-0.31984 0.12728,-0.31984 0.0621,-0.3851 0.13049,-0.31984 0.0621,-0.31984 0.12731,-0.31984 0.13049,-0.38446 0.0621,-0.31983 0.1273,-0.31985 0.0652,-0.31985 0.1273,-0.31984 0.0652,-0.38254 0.1273,-0.31984 0.12729,-0.31983 0.0652,-0.31985 0.1273,-0.31984 0.0652,-0.31984 0.12729,-0.31985 0.1273,-0.31984 0.0652,-0.31984 0.12729,-0.31985 0.0621,-0.31984 0.13049,-0.31984 0.1273,-0.31985 0.0621,-0.31984 0.13049,-0.31984 0.1273,-0.31984 0.0621,-0.31985 0.1305,-0.31984 0.12729,-0.31984 0.0621,-0.31984 0.13049,-0.31985 0.12729,-0.25715 0.0621,-0.31985 0.1305,-0.31984 0.12729,-0.31984 0.0621,-0.31984 0.1305,-0.25523 0.12729,-0.31985 0.12731,-0.31984 0.0652,-0.25459 0.1273,-0.31985 0.1273,-0.31985 0.0652,-0.31984 m -35.6331,28.40077 0.2578,0.0652 0.25459,0.0621 h 0.31984 l 0.25779,0.0652 h 0.2546 l 0.31984,0.0627 h 0.2546 l 0.25779,0.0646 h 0.31984 l 0.25459,0.0653 h 0.2578 l 0.31984,0.0621 h 0.2546 l 0.25459,0.0652 h 0.31984 l 0.2578,0.0627 h 0.31984 l 0.2546,0.0646 0.25779,0.0652 h 0.31985 l 0.25459,0.0621 h 0.31984 l 0.25459,0.0652 h 0.57764 l 0.31984,0.0627 h 0.2546 l 0.31984,0.0646 h 0.25779 l 0.31985,0.0652 h 0.31984 l 0.25459,0.0621 h 0.31984 l 0.25461,0.0652 h 0.31984 l 0.25779,0.0627 h 0.31984 l 0.31984,0.0646 h 0.2546 l 0.31984,0.0652 h 0.57763 l 0.31985,0.0621 h 0.31984 l 0.2546,0.0652 h 0.31984 l 0.31985,0.0627 h 0.57443 l 0.31984,0.0646 h 0.31985 l 0.25779,0.0652 h 0.63968 l 0.31985,0.0621 h 0.25459 l 0.31984,0.0652 h 0.63969 l 0.31984,0.0627 h 0.2578 l 0.31984,0.0646 h 0.63968 l 0.31984,0.0652 h 0.31985 l 0.2546,0.0621 h 0.63968 l 0.31984,0.0652 h 0.63968 l 0.31985,0.0627 h 0.63968 l 0.31985,0.0646 h 0.57443 l 0.31985,0.0652 h 0.63968 l 0.31985,0.0621 h 0.63968 l 0.31984,0.0652 h 0.63969 l 0.31984,0.0627 h 0.63969 l 0.31984,0.0646 m 6.01502,10.68218 0.0621,-0.3199 0.0652,-0.2546 0.0652,-0.3198 0.0621,-0.3199 0.0652,-0.25714 0.0621,-0.31985 0.1305,-0.31984 0.0621,-0.25524 0.0652,-0.31984 0.0621,-0.25459 0.0652,-0.31985 0.0652,-0.31984 0.0621,-0.2578 0.0653,-0.31983 0.0621,-0.2546 0.0652,-0.31985 0.0652,-0.31984 0.0621,-0.25715 0.0652,-0.31984 0.0621,-0.25524 0.1305,-0.31985 0.0621,-0.25459 0.0652,-0.31984 0.0621,-0.25779 0.0652,-0.31984 0.0652,-0.2546 0.0621,-0.25716 0.0652,-0.31984 0.0621,-0.25523 0.13049,-0.31984 0.0621,-0.2546 0.0652,-0.31984 0.0621,-0.2578 0.0652,-0.25459 0.0652,-0.31984 0.12731,-0.25716 0.0621,-0.25523 0.0652,-0.31984 0.0653,-0.2546 0.0621,-0.25779 0.0652,-0.31985 0.12731,-0.25459 0.0652,-0.25716 0.0621,-0.31984 0.0652,-0.25523 0.0621,-0.2546 0.1305,-0.25779 0.0621,-0.31985 0.0652,-0.25459 0.0621,-0.25715 0.13049,-0.25524 0.0621,-0.31984 0.0652,-0.25459 0.0621,-0.2578 0.1305,-0.25459 0.0621,-0.25716 0.0652,-0.25523 0.0621,-0.31985 0.13049,-0.25459 0.0621,-0.2578 0.0652,-0.25459 0.0621,-0.25715 0.1305,-0.25523 0.0621,-0.2546 0.0652,-0.25779 0.1273,-0.2546 0.0652,-0.25715 0.0621,-0.25524 0.0652,-0.2546 0.1273,-0.25779 0.0652,-0.2546 0.0621,-0.25715 0.1273,-0.25524 0.0652,-0.25459 0.0652,-0.25779 0.1273,-0.25459 0.0621,-0.25715 0.0652,-0.25524 0.1273,-0.25459 0.0652,-0.19255 0.0621,-0.25715 0.13051,-0.25524 0.0621,-0.2546 0.1273,-0.25779 0.0652,-0.2546 0.0653,-0.19254 0.12729,-0.25459 0.0621,-0.2578 0.0652,-0.25459 0.1273,-0.19255 0.0652,-0.25459 m -28.53125,22.70885 h 0.19255 l 0.25459,0.0621 h 0.19255 l 0.25779,0.0653 h 0.18935 l 0.25778,0.0627 h 0.44714 l 0.19255,0.0646 h 0.19255 l 0.25459,0.0653 h 0.19255 l 0.25459,0.0621 h 0.44714 l 0.19255,0.0653 h 0.25779 l 0.2546,0.0627 h 0.44714 l 0.19254,0.0646 h 0.25459 l 0.19255,0.0652 h 0.51239 l 0.19255,0.062 h 0.25459 l 0.19255,0.065 h 0.51238 l 0.19255,0.063 h 0.50919 l 0.19255,0.065 h 0.25779 l 0.25459,0.065 h 0.44715 l 0.25779,0.062 h 0.44714 l 0.25459,0.065 h 0.44714 l 0.25779,0.063 h 0.51239 l 0.18935,0.065 h 0.25779 l 0.2546,0.065 h 0.70493 l 0.2546,0.062 h 0.51239 l 0.25459,0.065 h 0.45033 l 0.25461,0.063 h 0.51238 l 0.2546,0.065 h 0.51238 l 0.19255,0.065 h 0.76698 l 0.25459,0.062 h 0.51239 l 0.2578,0.065 h 0.76698 l 0.25459,0.063 h 0.44715 l 0.2578,0.065 h 0.76697 l 0.2546,0.065 h 0.77018 l 0.2546,0.062 h 0.76698 m -33.4552,-13.23991 11.70689,11.25975 m 23.86089,-39.34067 4.60511,16.88643 m -13.3061,13.68863 6.3348,10.74637"
         style="fill:none;stroke:#000000;stroke-width:1.09954536;stroke-linecap:butt;stroke-linejoin:miter;stroke-miterlimit:10;stroke-dasharray:none;stroke-opacity:1"
         id="path5632"
         inkscape:connector-curvature="0" />
      <path
         d="m 399.96127,975.44486 h 0.19254 l 0.12731,0.0652 h 0.31984 l 0.19254,0.0627 h 0.31984 l 0.1273,0.0646 h 0.51239 l 0.1273,0.0652 h 0.38509 l 0.1273,0.0621 h 0.31984 l 0.19255,0.0652 h 0.51239 l 0.12729,0.0627 h 0.31985 l 0.19253,0.0646 h 0.5092 l 0.19254,0.0652 h 0.31985 l 0.12729,0.0621 h 0.51239 l 0.19254,0.0652 h 0.51239 l 0.19255,0.0627 h 0.50919 l 0.19254,0.0646 h 0.51239 l 0.19255,0.0653 h 0.51238 l 0.18935,0.0621 h 0.51239 l 0.19255,0.0652 h 0.51238 l 0.19255,0.0627 h 0.70174 l 0.19253,0.0646 h 0.70495 l 0.18934,0.0652 h 0.57763 l 0.19255,0.0621 h 0.70174 l 0.19254,0.0652 h 0.89429 l 0.19254,0.0627 h 0.76698 l 0.19255,0.0646 h 0.19254 m -24.3733,-18.67787 8.50846,17.20626 m -12.7937,23.92617 0.12729,-0.31984 0.13049,-0.25779 0.1273,-0.31984 0.1273,-0.2546 0.0653,-0.31985 0.1273,-0.31984 0.1273,-0.25715 0.12729,-0.31984 0.1273,-0.25524 0.1305,-0.31984 0.1273,-0.2546 0.12729,-0.31983 0.1273,-0.2578 0.12729,-0.31984 0.1305,-0.2546 0.1273,-0.31984 0.1273,-0.25716 0.12729,-0.31984 0.1273,-0.25523 0.13049,-0.2546 0.1273,-0.31984 0.1273,-0.2578 0.1273,-0.31983 0.1273,-0.2546 0.13049,-0.31985 0.1273,-0.25715 0.1273,-0.25524 0.19254,-0.31984 0.1273,-0.2546 0.1273,-0.25778 0.1273,-0.31985 0.13049,-0.25459 0.1273,-0.25716 0.12729,-0.31984 0.12731,-0.25523 0.19254,-0.2546 0.12729,-0.25779 0.12731,-0.31984 0.13049,-0.2546 0.1273,-0.25715 0.12729,-0.25524 0.19255,-0.31984 0.1273,-0.2546 0.12729,-0.25779 0.1273,-0.25459 0.19254,-0.25716 0.1273,-0.25523 0.1305,-0.31984 0.1273,-0.2546 0.19255,-0.25779 0.12729,-0.2546 0.1273,-0.25716 0.12729,-0.25523 0.19255,-0.2546 0.1273,-0.25779 0.12729,-0.25459 0.19255,-0.25715 0.1273,-0.25524 0.13049,-0.25459 0.18935,-0.2578 0.13049,-0.25459 0.12731,-0.25716 0.19254,-0.25523 0.12729,-0.25459 0.19255,-0.2578 0.1273,-0.25459 0.1273,-0.25716 0.19254,-0.25523 0.1273,-0.2546 0.19254,-0.25779 0.1273,-0.2546 0.1273,-0.25715 0.19254,-0.18999 0.12731,-0.25779 0.19253,-0.2546 0.12731,-0.25716 0.19254,-0.25523 0.12729,-0.25459 0.19255,-0.19255 0.1273,-0.25715 0.19254,-0.25524 0.1273,-0.25459 0.19255,-0.19254 0.12729,-0.25716 0.19255,-0.25523 0.1273,-0.19254 0.19254,-0.2546 0.1273,-0.25716 0.19255,-0.18998 0.12729,-0.2578 0.19255,-0.25459"
         style="fill:none;stroke:#000000;stroke-width:1.09954536;stroke-linecap:butt;stroke-linejoin:miter;stroke-miterlimit:10;stroke-dasharray:2.1990906, 2.1990906;stroke-dashoffset:0;stroke-opacity:1"
         id="path5634"
         inkscape:connector-curvature="0" />
      <path
         inkscape:connector-curvature="0"
         id="path5640"
         style="fill:#000000;fill-opacity:1;fill-rule:nonzero;stroke:none;stroke-width:0.68721581"
         d="m 380.01795,947.05136 c 0,-1.11242 -0.90196,-2.01437 -2.01373,-2.01437 -1.11497,0 -2.01693,0.90195 -2.01693,2.01437 0,1.11433 0.90196,2.01628 2.01693,2.01628 1.11177,0 2.01373,-0.90195 2.01373,-2.01628" />
      <g
         transform="matrix(0.68721581,0,0,0.68721581,249.51965,1002.1734)"
         style="font-style:normal;font-variant:normal;font-weight:normal;font-stretch:normal;font-size:9.60000038px;line-height:125%;font-family:Arial;-inkscape-font-specification:Sans;letter-spacing:0px;word-spacing:0px;fill:#000000;fill-opacity:1;stroke:none"
         id="g5644">
        <path
           d="m 179.59431,-85.404097 v 2.629687 h 1.19062 c 0.44063,4e-6 0.78125,-0.114058 1.02188,-0.342187 0.24062,-0.228121 0.36093,-0.553121 0.36094,-0.975 -1e-5,-0.418745 -0.12032,-0.742182 -0.36094,-0.970313 -0.24063,-0.228119 -0.58125,-0.342181 -1.02188,-0.342187 h -1.19062 m -0.94688,-0.778125 h 2.1375 c 0.78437,7e-6 1.37656,0.178132 1.77657,0.534375 0.40312,0.353131 0.60468,0.87188 0.60468,1.55625 0,0.690629 -0.20156,1.212504 -0.60468,1.565625 -0.40001,0.353128 -0.9922,0.52969 -1.77657,0.529687 h -1.19062 v 2.812501 h -0.94688 v -6.998438"
           style="font-family:Sans;-inkscape-font-specification:Sans"
           id="path5642"
           inkscape:connector-curvature="0" />
      </g>
      <path
         sodipodi:nodetypes="cc"
         inkscape:connector-curvature="0"
         id="path5661"
         d="m 392.01883,956.18018 c 5.32928,0.86371 13.05725,1.57316 19.41564,1.88557"
         style="fill:none;stroke:#ff0000;stroke-width:0.54453301;stroke-linecap:butt;stroke-linejoin:miter;stroke-miterlimit:4;stroke-dasharray:none;stroke-opacity:1;marker-start:url(#Arrow2Sstart-7);marker-end:url(#Arrow2Send-9)" />
      <path
         sodipodi:nodetypes="cc"
         inkscape:connector-curvature="0"
         id="path6733"
         d="m 400.21731,981.3699 -20.775,-31.72299"
         style="fill:none;stroke:#ff0000;stroke-width:0.54453301;stroke-linecap:butt;stroke-linejoin:miter;stroke-miterlimit:4;stroke-dasharray:none;stroke-opacity:1;marker-end:url(#marker6813-6)" />
      <g
         transform="matrix(0.77790429,0,0,0.77790429,130.54575,871.58755)"
         id="g7033">
        <g
           style="font-style:normal;font-variant:normal;font-weight:normal;font-stretch:normal;letter-spacing:normal;word-spacing:normal;text-anchor:start;fill:none;fill-opacity:1;fill-rule:evenodd;stroke:#000000;stroke-linecap:butt;stroke-linejoin:miter;stroke-miterlimit:10.43299961;stroke-dasharray:none;stroke-dashoffset:0;stroke-opacity:1"
           id="content-2"
           transform="matrix(0.3,0,0,-0.3,-52.5,222.75)"
           xml:space="preserve"
           stroke-miterlimit="10.433"
           font-style="normal"
           font-variant="normal"
           font-weight="normal"
           font-stretch="normal"
           font-size-adjust="none"
           letter-spacing="normal"
           word-spacing="normal"><path
             style="fill:#000000;stroke-width:0"
             inkscape:connector-curvature="0"
             d="m 1252.8,380.47 v 0.01 0 0.01 0.01 0.01 0.01 0.02 0.02 0.02 0.02 0.02 0.02 0.03 0.02 0.02 0.03 l -0.1,0.02 v 0.03 0.02 0.03 0.02 0.01 l -0.1,0.01 v 0.01 0.01 0.01 0.01 0.01 l -0.1,0.01 v 0.01 0.01 0.01 0 0.01 l -0.1,0.01 v 0 0.01 0 l -0.1,0.01 v 0 0 0.01 h -0.1 v 0 0 c -0.8,0 -5.5,-0.45 -6.3,-0.55 -0.5,-0.04 -0.7,-0.29 -0.7,-0.95 0,-0.59 0.4,-0.59 1.2,-0.59 2.4,0 2.4,-0.35 2.4,-0.85 l -0.1,-1 -3,-11.81 c -0.9,1.84 -2.3,3.19 -4.6,3.19 l 0.1,-1.1 c 3.2,0 3.9,-4.07 3.9,-4.37 0,-0.31 -0.1,-0.61 -0.1,-0.86 l -2.5,-9.77 c -0.3,-0.89 -0.3,-0.98 -1,-1.84 -2.2,-2.73 -4.3,-3.53 -5.7,-3.53 -2.4,0 -3.1,2.73 -3.1,4.69 0,2.48 1.5,8.61 2.7,10.9 1.5,2.94 3.8,4.78 5.8,4.78 l -0.1,1.1 c -5.8,0 -12,-7.32 -12,-14.6 0,-4.68 2.8,-7.97 6.7,-7.97 0.9,0 3.4,0.21 6.4,3.74 0.4,-2.09 2.2,-3.74 4.6,-3.74 1.7,0 2.8,1.15 3.6,2.74 0.9,1.8 1.5,4.84 1.5,4.94 0,0.5 -0.4,0.5 -0.6,0.5 -0.5,0 -0.5,-0.21 -0.7,-0.91 -0.8,-3.23 -1.7,-6.17 -3.7,-6.17 -1.4,0 -1.5,1.3 -1.5,2.3 0,1.18 0,1.54 0.3,2.39 z"
             id="path7030" /></g>      </g>
      <g
         transform="matrix(0.77790429,0,0,0.77790429,155.95572,859.66142)"
         id="g7084">
        <g
           style="font-style:normal;font-variant:normal;font-weight:normal;font-stretch:normal;letter-spacing:normal;word-spacing:normal;text-anchor:start;fill:none;fill-opacity:1;fill-rule:evenodd;stroke:#000000;stroke-linecap:butt;stroke-linejoin:miter;stroke-miterlimit:10.43299961;stroke-dasharray:none;stroke-dashoffset:0;stroke-opacity:1"
           id="g7082"
           transform="matrix(0.3,0,0,-0.3,-52.5,222.75)"
           xml:space="preserve"
           stroke-miterlimit="10.433"
           font-style="normal"
           font-variant="normal"
           font-weight="normal"
           font-stretch="normal"
           font-size-adjust="none"
           letter-spacing="normal"
           word-spacing="normal"><path
             style="fill:#000000;stroke-width:0"
             inkscape:connector-curvature="0"
             d="m 1228.7,376.58 0.1,0.17 v 0.15 0.16 l 0.1,0.14 v 0.14 l 0.1,0.13 v 0.12 l 0.1,0.12 v 0.11 l 0.1,0.1 0.1,0.1 v 0.09 l 0.1,0.09 0.1,0.08 0.1,0.08 0.2,0.07 0.1,0.06 0.1,0.06 0.2,0.06 0.2,0.05 0.1,0.02 0.1,0.02 0.1,0.02 0.1,0.02 0.1,0.02 0.1,0.02 0.1,0.02 0.2,0.01 0.1,0.02 0.1,0.01 0.2,0.01 0.1,0.01 0.2,0.01 0.1,0.01 0.2,0.01 0.1,0.01 0.2,0.01 h 0.2 l 0.2,0.01 h 0.2 0.2 0.2 l 0.2,0.01 h 0.2 c 1.5,0 1.9,0 1.9,0.95 0,0.59 -0.6,0.59 -0.8,0.59 -1.7,0 -5.7,-0.15 -7.4,-0.15 -1.5,0 -5.1,0.15 -6.6,0.15 -0.4,0 -1,0 -1,-1 0,-0.54 0.5,-0.54 1.4,-0.54 0.1,0 1.1,0 1.9,-0.1 0.9,-0.11 1.4,-0.15 1.4,-0.79 0,-0.21 -0.1,-0.36 -0.2,-0.96 l -6.7,-26.75 c -0.5,-1.95 -0.6,-2.34 -4.5,-2.34 -0.9,0 -1.4,0 -1.4,-1 0,-0.55 0.5,-0.55 1.4,-0.55 h 23 c 1.2,0 1.3,0 1.6,0.85 l 3.9,10.76 c 0.2,0.55 0.2,0.64 0.2,0.7 0,0.19 -0.1,0.55 -0.6,0.55 -0.4,0 -0.5,-0.25 -0.8,-1.05 -1.7,-4.59 -3.9,-10.26 -12.5,-10.26 h -4.7 c -0.7,0 -0.8,0 -1.1,0.05 -0.5,0.04 -0.7,0.09 -0.7,0.5 0,0.14 0,0.25 0.3,1.14 z"
             id="path7078" /><path
             style="fill:#000000;stroke-width:0"
             inkscape:connector-curvature="0"
             d="m 1258.1,348.85 0.3,-0.76 0.4,-0.77 0.3,-0.78 0.3,-0.78 0.4,-0.78 0.3,-0.76 0.1,-0.37 0.2,-0.36 0.1,-0.36 0.2,-0.34 0.1,-0.34 0.2,-0.32 0.1,-0.31 0.1,-0.3 0.1,-0.29 0.2,-0.27 0.1,-0.25 0.1,-0.23 0.1,-0.22 0.1,-0.19 v -0.18 l 0.1,-0.15 0.1,-0.13 v -0.11 l 0.1,-0.08 v -0.06 c 0.7,-0.82 1.3,-0.82 1.9,-0.82 h 0.7 c 0.6,0 1,0 1,0.4 0,0.19 -0.1,0.28 -0.2,0.36 -0.4,0.38 -0.8,1.19 -0.9,1.5 l -8.5,20.06 c -0.2,0.63 -0.9,2.21 -4.6,2.21 -0.4,0 -0.9,0 -0.9,-0.5 0,-0.41 0.3,-0.46 0.5,-0.49 0.7,-0.09 1.4,-0.2 2.2,-2.19 l 4.2,-9.76 -10.3,-9.27 c -0.4,-0.34 -0.7,-0.62 -0.7,-1.22 0,-0.82 0.7,-1.18 1.2,-1.18 0.7,0 1.1,0.45 1.2,0.56 z"
             id="path7080" /></g>      </g>
      <g
         transform="matrix(0.77790429,0,0,0.77790429,176.97881,899.42889)"
         id="g7140">
        <g
           style="font-style:normal;font-variant:normal;font-weight:normal;font-stretch:normal;letter-spacing:normal;word-spacing:normal;text-anchor:start;fill:none;fill-opacity:1;fill-rule:evenodd;stroke:#000000;stroke-linecap:butt;stroke-linejoin:miter;stroke-miterlimit:10.43299961;stroke-dasharray:none;stroke-dashoffset:0;stroke-opacity:1"
           id="g7138"
           transform="matrix(0.3,0,0,-0.3,-52.5,222.75)"
           xml:space="preserve"
           stroke-miterlimit="10.433"
           font-style="normal"
           font-variant="normal"
           font-weight="normal"
           font-stretch="normal"
           font-size-adjust="none"
           letter-spacing="normal"
           word-spacing="normal"><path
             style="fill:#000000;stroke-width:0"
             inkscape:connector-curvature="0"
             d="m 1228.6,376.58 v 0.17 l 0.1,0.15 v 0.16 l 0.1,0.14 v 0.14 0.13 l 0.1,0.12 0.1,0.12 v 0.11 l 0.1,0.1 v 0.1 l 0.1,0.09 0.1,0.09 0.1,0.08 0.1,0.08 0.1,0.07 0.2,0.06 0.1,0.06 0.2,0.06 0.2,0.05 0.1,0.02 0.1,0.02 0.1,0.02 0.1,0.02 0.1,0.02 0.1,0.02 0.1,0.02 0.1,0.01 0.2,0.02 0.1,0.01 0.1,0.01 0.2,0.01 0.1,0.01 0.2,0.01 0.2,0.01 0.1,0.01 0.2,0.01 h 0.2 l 0.2,0.01 h 0.2 0.2 0.2 l 0.2,0.01 h 0.2 c 1.5,0 1.9,0 1.9,0.95 0,0.59 -0.6,0.59 -0.8,0.59 -1.7,0 -5.8,-0.15 -7.4,-0.15 -1.5,0 -5.1,0.15 -6.6,0.15 -0.4,0 -1,0 -1,-1 0,-0.54 0.5,-0.54 1.4,-0.54 0.1,0 1.1,0 1.9,-0.1 0.9,-0.11 1.4,-0.15 1.4,-0.79 0,-0.21 -0.1,-0.36 -0.2,-0.96 l -6.7,-26.75 c -0.5,-1.95 -0.6,-2.34 -4.6,-2.34 -0.8,0 -1.3,0 -1.3,-1 0,-0.55 0.4,-0.55 1.3,-0.55 h 23.1 c 1.2,0 1.3,0 1.6,0.85 l 3.9,10.76 c 0.2,0.55 0.2,0.64 0.2,0.7 0,0.19 -0.2,0.55 -0.6,0.55 -0.5,0 -0.5,-0.25 -0.8,-1.05 -1.8,-4.59 -3.9,-10.26 -12.6,-10.26 h -4.6 c -0.7,0 -0.8,0 -1.1,0.05 -0.5,0.04 -0.7,0.09 -0.7,0.5 0,0.14 0,0.25 0.3,1.14 z"
             id="path7134" /><path
             style="fill:#000000;stroke-width:0"
             inkscape:connector-curvature="0"
             d="m 1261.1,362.61 v 0.02 0.02 0.02 0.02 0.02 l -0.1,0.02 v 0.02 0.01 0.02 0.01 0.02 0.01 0.02 0.01 0.01 0.01 0.02 0.01 0.01 0.01 l -0.1,0.02 v 0.02 0.01 0.02 0.01 l -0.1,0.01 v 0.01 0.01 0.01 h -0.1 v 0.01 0 0.01 h -0.1 v 0 0 0 l -0.1,0.01 v 0 0 0 0 c -0.6,0 -0.6,-0.19 -0.7,-0.77 l -2,-7.98 c -6.2,-0.28 -11.4,-4.71 -11.4,-9.38 0,-3.94 3.5,-6.31 7.4,-6.45 l 0.3,0.98 c -2.7,0.14 -5.2,1.6 -5.2,4.88 0,3.48 2.7,8.4 8.6,8.95 l -3.4,-13.83 -0.3,-0.98 c -0.3,-1.08 -0.5,-2.19 -0.8,-3.27 -0.4,-1.64 -0.7,-2.92 -0.7,-3.03 0,-0.42 0.4,-0.42 0.5,-0.42 0.6,0 0.6,0.11 0.8,0.84 l 1.4,5.85 c 6,0.25 11.5,4.64 11.5,9.37 0,3.66 -3.2,6.28 -7.5,6.46 l -0.3,-0.99 c 2.7,-0.09 5.2,-1.56 5.2,-4.87 0,-3.8 -3,-8.47 -8.6,-8.96 l 3.4,13.83 0.3,0.99 z"
             id="path7136" /></g>      </g>
      <path
         sodipodi:nodetypes="cc"
         inkscape:connector-curvature="0"
         id="path7700"
         d="m 411.13225,1001.7627 c 0.80858,-4.48396 5.03659,-19.50172 6.97123,-24.43406"
         style="fill:none;stroke:#ff0000;stroke-width:0.54453301;stroke-linecap:butt;stroke-linejoin:miter;stroke-miterlimit:4;stroke-dasharray:none;stroke-opacity:1;marker-start:url(#marker7728-6);marker-end:url(#Arrow1Send-6)" />
      <path
         d="m 402.683,981.47388 c 0,-1.11241 -0.90196,-2.01437 -2.01373,-2.01437 -1.11497,0 -2.01693,0.90196 -2.01693,2.01437 0,1.11433 0.90196,2.01629 2.01693,2.01629 1.11177,0 2.01373,-0.90196 2.01373,-2.01629"
         style="fill:#4d4d4d;fill-opacity:1;fill-rule:nonzero;stroke:none;stroke-width:0.68721581"
         id="path7874"
         inkscape:connector-curvature="0" />
      <path
         inkscape:connector-curvature="0"
         id="path8026"
         style="fill:none;stroke:#000000;stroke-width:1.09954536;stroke-linecap:butt;stroke-linejoin:miter;stroke-miterlimit:10;stroke-dasharray:none;stroke-opacity:1"
         d="m 445.43969,988.11128 0.1305,-0.31984 0.18935,-0.38446 0.13049,-0.38253 0.1273,-0.38509 0.19254,-0.31984 0.1273,-0.38189 0.1273,-0.38509 0.19254,-0.31985 0.1273,-0.38444 0.19255,-0.38254 0.12729,-0.31984 0.19255,-0.38509 0.12729,-0.38189 0.19255,-0.31985 0.1273,-0.38508 0.12729,-0.31985 0.19255,-0.38445 0.19255,-0.38254 0.12729,-0.31983 0.19255,-0.3851 0.1273,-0.31985 0.19254,-0.38188 0.1273,-0.31984 0.19255,-0.3851 0.12729,-0.31984 0.19254,-0.38445 0.19255,-0.31985 0.12729,-0.38253 0.19255,-0.31984 0.1273,-0.31984 0.19254,-0.38509 0.18935,-0.31985 0.1305,-0.38188 0.18935,-0.31985 0.19254,-0.31984 0.19254,-0.38509 0.12731,-0.31985 0.19253,-0.31984 0.19255,-0.38445 0.1273,-0.31984 0.19254,-0.31985 0.19255,-0.31985 0.18935,-0.38252 0.13049,-0.31984 0.18935,-0.31985 0.19254,-0.31984 0.19255,-0.38509 0.19255,-0.31984 0.19254,-0.31984 0.1273,-0.31986 0.19255,-0.31984 0.18934,-0.31984 0.19255,-0.31984 0.19254,-0.38189 0.19255,-0.31985 0.19255,-0.31984 0.18934,-0.31984 0.13049,-0.31985 0.18935,-0.31983 0.19255,-0.31984 0.19254,-0.31985 0.19255,-0.31985 0.19254,-0.31984 0.18935,-0.31984 0.19254,-0.31984 0.19255,-0.31984 0.19254,-0.2578 0.19255,-0.31984 0.18935,-0.31984 0.19254,-0.31985 0.19254,-0.31984 0.19255,-0.31985 0.19255,-0.31984 0.18935,-0.25459 0.19254,-0.31985 0.19254,-0.31984 0.19255,-0.31984 0.25459,-0.25715 0.19255,-0.31985 0.19255,-0.31984 0.19254,-0.31985 0.18934,-0.25523 0.19255,-0.31984 0.19255,-0.31985 0.19254,-0.25459 0.2546,-0.31984 0.19254,-0.25779 0.19255,-0.31985 0.19254,-0.31984 0.18935,-0.2546 0.2578,-0.31984 m -0.2578,0.31984 h 0.19254 l 0.25779,0.0627 h 0.18935 l 0.19255,0.0646 h 0.38509 l 0.19254,0.0653 h 0.3819 l 0.25779,0.0621 h 0.18935 l 0.19254,0.0653 h 0.38509 l 0.19255,0.0627 h 0.25459 l 0.19255,0.0646 h 0.38189 l 0.25779,0.0653 h 0.38189 l 0.19255,0.0621 h 0.44714 l 0.19254,0.0652 h 0.44714 l 0.19255,0.0627 h 0.19255 l 0.25459,0.0646 h 0.38509 l 0.25459,0.0653 h 0.3851 l 0.25459,0.0621 h 0.38509 l 0.2546,0.0652 h 0.63968 l 0.19255,0.0627 h 0.44714 l 0.19254,0.0646 h 0.44715 l 0.25779,0.0652 h 0.44713 l 0.19255,0.0621 h 0.70173 l 0.19255,0.0653 h 0.44714 l 0.19254,0.0627 h 0.70493 l 0.19255,0.0646 h 0.50919 l 0.19255,0.0652 h 0.70493 l 0.19254,0.0621 h 0.70174 l 0.25779,0.0653 h 0.63969 l 0.25459,0.0627 h 0.70494 l 0.18934,0.0646 h 0.95953 l 0.19254,0.0653 h 0.70494 m -8.89355,30.57507 0.1305,-0.38253 0.0621,-0.31985 0.0653,-0.38509 0.0621,-0.3819 0.1305,-0.38508 0.0621,-0.38445 0.0653,-0.38253 0.1273,-0.31985 0.0653,-0.38508 0.0621,-0.3819 0.0653,-0.38509 0.12731,-0.31984 0.0653,-0.38446 0.0621,-0.38253 0.1273,-0.38509 0.0653,-0.31984 0.0653,-0.3819 0.1273,-0.38508 0.0621,-0.31984 0.13049,-0.38445 0.0621,-0.38254 0.0653,-0.31985 0.12729,-0.38508 0.0653,-0.31985 0.1273,-0.38189 0.0621,-0.3851 0.0653,-0.31983 0.12729,-0.38446 0.0653,-0.31983 0.1273,-0.38254 0.0653,-0.31984 0.0621,-0.3851 0.1273,-0.31984 0.0653,-0.38189 0.1273,-0.31984 0.0653,-0.38509 0.12729,-0.31985 0.0652,-0.38445 0.1273,-0.31984 0.0621,-0.31984 0.13049,-0.38254 0.0621,-0.31984 0.1273,-0.38509 0.0652,-0.31984 0.1273,-0.31984 0.0652,-0.3819 0.12729,-0.31984 0.0652,-0.31984 0.12729,-0.31984 0.0621,-0.3851 0.13049,-0.31984 0.0621,-0.31984 0.1273,-0.31984 0.13049,-0.38446 0.0621,-0.31983 0.1273,-0.31985 0.0652,-0.31985 0.12731,-0.31984 0.0652,-0.38254 0.1273,-0.31984 0.1273,-0.31983 0.0652,-0.31985 0.12729,-0.31984 0.0652,-0.31984 0.1273,-0.31985 0.12729,-0.31984 0.0652,-0.31984 0.1273,-0.31985 0.0621,-0.31984 0.1305,-0.31984 0.12729,-0.31985 0.0621,-0.31984 0.13049,-0.31984 0.1273,-0.31984 0.0621,-0.31985 0.13049,-0.31984 0.1273,-0.31984 0.0621,-0.31984 0.1305,-0.31985 0.12729,-0.25715 0.0621,-0.31985 0.1305,-0.31984 0.12729,-0.31984 0.0621,-0.31984 0.13049,-0.25523 0.1273,-0.31985 0.1273,-0.31984 0.0652,-0.25459 0.1273,-0.31985 0.1273,-0.31985 0.0652,-0.31984 m -35.63308,28.40077 0.2578,0.0652 0.25459,0.0621 h 0.31984 l 0.25779,0.0652 h 0.2546 l 0.31984,0.0627 h 0.2546 l 0.25779,0.0646 h 0.31984 l 0.25459,0.0653 h 0.2578 l 0.31984,0.0621 h 0.2546 l 0.25459,0.0652 h 0.31984 l 0.2578,0.0627 h 0.31984 l 0.2546,0.0646 0.25779,0.0652 h 0.31985 l 0.25459,0.0621 h 0.31984 l 0.25459,0.0652 h 0.57763 l 0.31985,0.0627 h 0.2546 l 0.31984,0.0646 h 0.25779 l 0.31984,0.0652 h 0.31985 l 0.25459,0.0621 h 0.31984 l 0.2546,0.0652 h 0.31985 l 0.25778,0.0627 h 0.31985 l 0.31984,0.0646 h 0.25459 l 0.31985,0.0652 h 0.57763 l 0.31984,0.0621 h 0.31984 l 0.25461,0.0652 h 0.31984 l 0.31984,0.0627 h 0.57444 l 0.31984,0.0646 h 0.31984 l 0.25779,0.0652 h 0.63969 l 0.31984,0.0621 h 0.25459 l 0.31985,0.0652 h 0.63968 l 0.31984,0.0627 h 0.2578 l 0.31985,0.0646 h 0.63967 l 0.31984,0.0652 h 0.31985 l 0.2546,0.0621 h 0.63968 l 0.31984,0.0652 h 0.63969 l 0.31984,0.0627 h 0.63969 l 0.31984,0.0646 h 0.57443 l 0.31985,0.0652 h 0.63968 l 0.31984,0.0621 h 0.63969 l 0.31984,0.0652 h 0.63969 l 0.31984,0.0627 h 0.63969 l 0.31984,0.0646 m 6.01502,10.68218 0.0621,-0.3199 0.0652,-0.2546 0.0652,-0.3198 0.0621,-0.3199 0.0652,-0.25714 0.0621,-0.31985 0.1305,-0.31984 0.0621,-0.25524 0.0652,-0.31984 0.0621,-0.25459 0.0652,-0.31985 0.0652,-0.31984 0.0621,-0.2578 0.0653,-0.31983 0.0621,-0.2546 0.0652,-0.31985 0.0652,-0.31984 0.0621,-0.25715 0.0652,-0.31984 0.0621,-0.25524 0.13051,-0.31985 0.0621,-0.25459 0.0652,-0.31984 0.0621,-0.25779 0.0652,-0.31984 0.0652,-0.2546 0.0621,-0.25716 0.0652,-0.31984 0.0621,-0.25523 0.13049,-0.31984 0.0621,-0.2546 0.0652,-0.31984 0.0621,-0.2578 0.0652,-0.25459 0.0652,-0.31984 0.1273,-0.25716 0.0621,-0.25523 0.0652,-0.31984 0.0653,-0.2546 0.0621,-0.25779 0.0652,-0.31985 0.1273,-0.25459 0.0652,-0.25716 0.0621,-0.31984 0.0652,-0.25523 0.0621,-0.2546 0.1305,-0.25779 0.0621,-0.31985 0.0652,-0.25459 0.0621,-0.25715 0.13049,-0.25524 0.0621,-0.31984 0.0652,-0.25459 0.0621,-0.2578 0.1305,-0.25459 0.0621,-0.25716 0.0652,-0.25523 0.0621,-0.31985 0.1305,-0.25459 0.0621,-0.2578 0.0652,-0.25459 0.0621,-0.25715 0.1305,-0.25523 0.0621,-0.2546 0.0652,-0.25779 0.12729,-0.2546 0.0652,-0.25715 0.0621,-0.25524 0.0652,-0.2546 0.12729,-0.25779 0.0652,-0.2546 0.0621,-0.25715 0.12729,-0.25524 0.0652,-0.25459 0.0652,-0.25779 0.12729,-0.25459 0.0621,-0.25715 0.0652,-0.25524 0.1273,-0.25459 0.0652,-0.19255 0.0621,-0.25715 0.1305,-0.25524 0.0621,-0.2546 0.12729,-0.25779 0.0652,-0.2546 0.0653,-0.19254 0.12729,-0.25459 0.0621,-0.2578 0.0652,-0.25459 0.12731,-0.19255 0.0652,-0.25459 m -28.53123,22.70885 h 0.19254 l 0.25459,0.0621 h 0.19255 l 0.25779,0.0653 h 0.18935 l 0.25779,0.0627 h 0.44714 l 0.19255,0.0646 h 0.19254 l 0.2546,0.0653 h 0.19254 l 0.25459,0.0621 h 0.44714 l 0.19255,0.0653 h 0.2578 l 0.25459,0.0627 h 0.44714 l 0.19255,0.0646 h 0.25459 l 0.19255,0.0652 h 0.51239 l 0.19254,0.062 h 0.25459 l 0.19255,0.065 h 0.51238 l 0.19255,0.063 h 0.50919 l 0.19255,0.065 h 0.25779 l 0.25459,0.065 h 0.44715 l 0.25779,0.062 h 0.44714 l 0.25459,0.065 h 0.44714 l 0.2578,0.063 h 0.51238 l 0.18935,0.065 h 0.25779 l 0.2546,0.065 h 0.70493 l 0.25459,0.062 h 0.51239 l 0.2546,0.065 h 0.45033 l 0.2546,0.063 h 0.51239 l 0.2546,0.065 h 0.51238 l 0.19254,0.065 h 0.76699 l 0.25459,0.062 h 0.51239 l 0.2578,0.065 h 0.76698 l 0.25459,0.063 h 0.44715 l 0.2578,0.065 h 0.76698 l 0.25459,0.065 h 0.77019 l 0.25459,0.062 h 0.76699 m -33.4552,-13.23991 11.70688,11.25975 m 23.86089,-39.34067 4.60511,16.88643 m -13.30611,13.68863 6.33482,10.74637" />
      <path
         sodipodi:nodetypes="cc"
         inkscape:connector-curvature="0"
         id="path8030"
         d="m 453.18116,971.60675 c 4.77798,0.73507 17.18317,1.99075 23.34889,2.17668 l 6.14141,11.96057"
         style="fill:none;stroke:#000000;stroke-width:0.38895214;stroke-linecap:butt;stroke-linejoin:miter;stroke-miterlimit:4;stroke-dasharray:1.16685644, 1.16685644;stroke-dashoffset:0;stroke-opacity:1" />
      <path
         sodipodi:nodetypes="cc"
         inkscape:connector-curvature="0"
         id="path8034"
         d="m 471.0271,959.26076 c -4.57402,6.86103 -10.42415,20.97868 -12.08869,30.38446 l 6.39584,10.68458"
         style="fill:none;stroke:#000000;stroke-width:0.38895214;stroke-linecap:butt;stroke-linejoin:miter;stroke-miterlimit:4;stroke-dasharray:1.16685644, 1.16685644;stroke-dashoffset:0;stroke-opacity:1" />
      <g
         transform="matrix(0.77790429,0,0,0.77790429,187.63214,884.54895)"
         id="g8090">
        <g
           style="font-style:normal;font-variant:normal;font-weight:normal;font-stretch:normal;letter-spacing:normal;word-spacing:normal;text-anchor:start;fill:none;fill-opacity:1;fill-rule:evenodd;stroke:#000000;stroke-linecap:butt;stroke-linejoin:miter;stroke-miterlimit:10.43299961;stroke-dasharray:none;stroke-dashoffset:0;stroke-opacity:1"
           id="g8088"
           transform="matrix(0.3,0,0,-0.3,-52.5,222.75)"
           xml:space="preserve"
           stroke-miterlimit="10.433"
           font-style="normal"
           font-variant="normal"
           font-weight="normal"
           font-stretch="normal"
           font-size-adjust="none"
           letter-spacing="normal"
           word-spacing="normal"><path
             style="fill:#000000;stroke-width:0"
             inkscape:connector-curvature="0"
             d="m 1251.4,362.74 0.4,-0.33 0.4,-0.32 0.4,-0.31 0.4,-0.3 0.5,-0.28 0.4,-0.27 0.4,-0.26 0.4,-0.25 0.4,-0.23 0.4,-0.22 0.4,-0.21 0.4,-0.2 0.4,-0.19 0.3,-0.17 0.2,-0.08 0.2,-0.08 0.1,-0.07 0.2,-0.08 c -1.8,-0.79 -4.2,-2.09 -6.3,-3.82 h -31.6 c -0.9,0 -1.8,0 -1.8,-1 0,-1 0.9,-1 1.7,-1 h 29.5 c -2.4,-2.3 -5,-6.68 -5,-7.33 0,-0.55 0.6,-0.55 0.9,-0.55 0.4,0 0.8,0 1,0.41 1,1.89 2.4,4.53 5.7,7.42 3.4,3.03 6.7,4.37 9.3,5.12 0.9,0.3 0.9,0.36 1,0.46 0.1,0.04 0.1,0.2 0.1,0.29 0,0.11 0,0.21 0,0.3 l -0.2,0.11 c -0.1,0.05 -0.1,0.09 -1.1,0.39 -6.7,2 -11.7,6.53 -14.5,11.86 -0.5,1 -0.6,1.05 -1.3,1.05 -0.3,0 -0.9,0 -0.9,-0.55 0,-0.66 2.5,-4.98 5,-7.33 h -29.5 c -0.8,0 -1.7,0 -1.7,-1 0,-0.98 0.9,-0.98 1.8,-0.98 z"
             id="path8086" /></g>      </g>
    </g>
  </g>
</svg>
