<?xml version="1.0" encoding="UTF-8" standalone="no"?>
<!-- Created with Inkscape (http://www.inkscape.org/) -->

<svg
   xmlns:dc="http://purl.org/dc/elements/1.1/"
   xmlns:cc="http://creativecommons.org/ns#"
   xmlns:rdf="http://www.w3.org/1999/02/22-rdf-syntax-ns#"
   xmlns:svg="http://www.w3.org/2000/svg"
   xmlns="http://www.w3.org/2000/svg"
   xmlns:sodipodi="http://sodipodi.sourceforge.net/DTD/sodipodi-0.dtd"
   xmlns:inkscape="http://www.inkscape.org/namespaces/inkscape"
   width="166.11823mm"
   height="75.060646mm"
   viewBox="0 0 166.11823 75.060646"
   version="1.1"
   id="svg4926"
   inkscape:version="0.92.4 5da689c313, 2019-01-14"
   sodipodi:docname="adaptive-discretization.svg">
  <defs
     id="defs4920">
    <marker
       inkscape:isstock="true"
       style="overflow:visible"
       id="marker7728"
       refX="0"
       refY="0"
       orient="auto"
       inkscape:stockid="Arrow2Sstart">
      <path
         transform="matrix(0.3,0,0,0.3,-0.69,0)"
         d="M 8.7185878,4.0337352 -2.2072895,0.01601326 8.7185884,-4.0017078 c -1.7454984,2.3720609 -1.7354408,5.6174519 -6e-7,8.035443 z"
         style="fill:#ff0000;fill-opacity:1;fill-rule:evenodd;stroke:#ff0000;stroke-width:0.625;stroke-linejoin:round;stroke-opacity:1"
         id="path7726"
         inkscape:connector-curvature="0" />
    </marker>
    <marker
       inkscape:stockid="Arrow1Send"
       orient="auto"
       refY="0"
       refX="0"
       id="marker6813"
       style="overflow:visible"
       inkscape:isstock="true">
      <path
         id="path6811"
         d="M 0,0 5,-5 -12.5,0 5,5 Z"
         style="fill:#ff0000;fill-opacity:1;fill-rule:evenodd;stroke:#ff0000;stroke-width:1.00000003pt;stroke-opacity:1"
         transform="matrix(-0.2,0,0,-0.2,-1.2,0)"
         inkscape:connector-curvature="0" />
    </marker>
    <marker
       inkscape:stockid="Arrow2Send"
       orient="auto"
       refY="0"
       refX="0"
       id="marker6659"
       style="overflow:visible"
       inkscape:isstock="true">
      <path
         id="path6657"
         style="fill:#ff0000;fill-opacity:1;fill-rule:evenodd;stroke:#ff0000;stroke-width:0.625;stroke-linejoin:round;stroke-opacity:1"
         d="M 8.7185878,4.0337352 -2.2072895,0.01601326 8.7185884,-4.0017078 c -1.7454984,2.3720609 -1.7354408,5.6174519 -6e-7,8.035443 z"
         transform="matrix(-0.3,0,0,-0.3,0.69,0)"
         inkscape:connector-curvature="0" />
    </marker>
    <marker
       inkscape:stockid="Arrow2Sstart"
       orient="auto"
       refY="0"
       refX="0"
       id="marker6589"
       style="overflow:visible"
       inkscape:isstock="true">
      <path
         id="path6587"
         style="fill:#ff0000;fill-opacity:1;fill-rule:evenodd;stroke:#ff0000;stroke-width:0.625;stroke-linejoin:round;stroke-opacity:1"
         d="M 8.7185878,4.0337352 -2.2072895,0.01601326 8.7185884,-4.0017078 c -1.7454984,2.3720609 -1.7354408,5.6174519 -6e-7,8.035443 z"
         transform="matrix(0.3,0,0,0.3,-0.69,0)"
         inkscape:connector-curvature="0" />
    </marker>
    <marker
       inkscape:stockid="Arrow2Sstart"
       orient="auto"
       refY="0"
       refX="0"
       id="Arrow2Sstart"
       style="overflow:visible"
       inkscape:isstock="true">
      <path
         id="path5695"
         style="fill:#ff0000;fill-opacity:1;fill-rule:evenodd;stroke:#ff0000;stroke-width:0.625;stroke-linejoin:round;stroke-opacity:1"
         d="M 8.7185878,4.0337352 -2.2072895,0.01601326 8.7185884,-4.0017078 c -1.7454984,2.3720609 -1.7354408,5.6174519 -6e-7,8.035443 z"
         transform="matrix(0.3,0,0,0.3,-0.69,0)"
         inkscape:connector-curvature="0" />
    </marker>
    <marker
       inkscape:stockid="Arrow2Send"
       orient="auto"
       refY="0"
       refX="0"
       id="Arrow2Send"
       style="overflow:visible"
       inkscape:isstock="true">
      <path
         id="path5698"
         style="fill:#ff0000;fill-opacity:1;fill-rule:evenodd;stroke:#ff0000;stroke-width:0.625;stroke-linejoin:round;stroke-opacity:1"
         d="M 8.7185878,4.0337352 -2.2072895,0.01601326 8.7185884,-4.0017078 c -1.7454984,2.3720609 -1.7354408,5.6174519 -6e-7,8.035443 z"
         transform="matrix(-0.3,0,0,-0.3,0.69,0)"
         inkscape:connector-curvature="0" />
    </marker>
    <marker
       inkscape:stockid="Arrow1Send"
       orient="auto"
       refY="0"
       refX="0"
       id="marker6347"
       style="overflow:visible"
       inkscape:isstock="true">
      <path
         id="path6345"
         d="M 0,0 5,-5 -12.5,0 5,5 Z"
         style="fill:#ff0000;fill-opacity:1;fill-rule:evenodd;stroke:#ff0000;stroke-width:1.00000003pt;stroke-opacity:1"
         transform="matrix(-0.2,0,0,-0.2,-1.2,0)"
         inkscape:connector-curvature="0" />
    </marker>
    <marker
       inkscape:stockid="Arrow2Mend"
       orient="auto"
       refY="0"
       refX="0"
       id="Arrow2Mend"
       style="overflow:visible"
       inkscape:isstock="true">
      <path
         id="path5692"
         style="fill:#ff0000;fill-opacity:1;fill-rule:evenodd;stroke:#ff0000;stroke-width:0.625;stroke-linejoin:round;stroke-opacity:1"
         d="M 8.7185878,4.0337352 -2.2072895,0.01601326 8.7185884,-4.0017078 c -1.7454984,2.3720609 -1.7354408,5.6174519 -6e-7,8.035443 z"
         transform="scale(-0.6)"
         inkscape:connector-curvature="0" />
    </marker>
    <marker
       inkscape:stockid="Arrow1Send"
       orient="auto"
       refY="0"
       refX="0"
       id="Arrow1Send"
       style="overflow:visible"
       inkscape:isstock="true">
      <path
         id="path5680"
         d="M 0,0 5,-5 -12.5,0 5,5 Z"
         style="fill:#ff0000;fill-opacity:1;fill-rule:evenodd;stroke:#ff0000;stroke-width:1.00000003pt;stroke-opacity:1"
         transform="matrix(-0.2,0,0,-0.2,-1.2,0)"
         inkscape:connector-curvature="0" />
    </marker>
    <marker
       inkscape:isstock="true"
       style="overflow:visible"
       id="marker6009"
       refX="0"
       refY="0"
       orient="auto"
       inkscape:stockid="Arrow2Mstart">
      <path
         transform="scale(0.6)"
         d="M 8.7185878,4.0337352 -2.2072895,0.01601326 8.7185884,-4.0017078 c -1.7454984,2.3720609 -1.7354408,5.6174519 -6e-7,8.035443 z"
         style="fill:#ff0000;fill-opacity:1;fill-rule:evenodd;stroke:#ff0000;stroke-width:0.625;stroke-linejoin:round;stroke-opacity:1"
         id="path6007"
         inkscape:connector-curvature="0" />
    </marker>
    <marker
       inkscape:isstock="true"
       style="overflow:visible"
       id="marker5949"
       refX="0"
       refY="0"
       orient="auto"
       inkscape:stockid="Arrow2Mend">
      <path
         transform="scale(-0.6)"
         d="M 8.7185878,4.0337352 -2.2072895,0.01601326 8.7185884,-4.0017078 c -1.7454984,2.3720609 -1.7354408,5.6174519 -6e-7,8.035443 z"
         style="fill:#ff0000;fill-opacity:1;fill-rule:evenodd;stroke:#ff0000;stroke-width:0.625;stroke-linejoin:round;stroke-opacity:1"
         id="path5947"
         inkscape:connector-curvature="0" />
    </marker>
  </defs>
  <sodipodi:namedview
     id="base"
     pagecolor="#ffffff"
     bordercolor="#666666"
     borderopacity="1.0"
     inkscape:pageopacity="0.0"
     inkscape:pageshadow="2"
     inkscape:zoom="0.175"
     inkscape:cx="535.59135"
     inkscape:cy="-396.83492"
     inkscape:document-units="mm"
     inkscape:current-layer="layer1"
     showgrid="false"
     inkscape:window-width="1920"
     inkscape:window-height="1023"
     inkscape:window-x="0"
     inkscape:window-y="29"
     inkscape:window-maximized="1"
     fit-margin-top="0"
     fit-margin-left="0"
     fit-margin-right="0"
     fit-margin-bottom="0" />
  <metadata
     id="metadata4923">
    <rdf:RDF>
      <cc:Work
         rdf:about="">
        <dc:format>image/svg+xml</dc:format>
        <dc:type
           rdf:resource="http://purl.org/dc/dcmitype/StillImage" />
        <dc:title></dc:title>
      </cc:Work>
    </rdf:RDF>
  </metadata>
  <g
     inkscape:label="Capa 1"
     inkscape:groupmode="layer"
     id="layer1"
     transform="translate(205.54108,213.61571)">
    <g
       style="font-style:normal;font-variant:normal;font-weight:normal;font-stretch:normal;font-size:12px;line-height:125%;font-family:Arial;-inkscape-font-specification:Sans;letter-spacing:0px;word-spacing:0px;fill:#000000;fill-opacity:1;stroke:none"
       id="flowRoot3223"
       transform="matrix(0.88341949,0,0,-0.88341949,-231.58626,65.855584)" />
    <g
       style="font-style:normal;font-variant:normal;font-weight:normal;font-stretch:normal;font-size:9px;line-height:125%;font-family:sans;-inkscape-font-specification:sans;letter-spacing:0px;word-spacing:0px;fill:#000000;fill-opacity:1;stroke:none"
       id="flowRoot3040"
       transform="matrix(0.88341949,0,0,-0.88341949,-231.58626,65.855584)" />
    <path
       inkscape:connector-curvature="0"
       id="path5632"
       style="fill:none;stroke:#000000;stroke-width:1.41347122;stroke-linecap:butt;stroke-linejoin:miter;stroke-miterlimit:10;stroke-dasharray:none;stroke-opacity:1"
       d="m -181.791,-157.10174 0.16775,-0.41116 0.24341,-0.49422 0.16775,-0.49175 0.16364,-0.49503 0.24752,-0.41116 0.16364,-0.49092 0.16364,-0.49504 0.24752,-0.41116 0.16364,-0.49421 0.24752,-0.49175 0.16364,-0.41116 0.24752,-0.49503 0.16364,-0.49093 0.24752,-0.41116 0.16364,-0.49503 0.16364,-0.41116 0.24752,-0.49422 0.24752,-0.49175 0.16364,-0.41115 0.24752,-0.49504 0.16364,-0.41117 0.24752,-0.49091 0.16364,-0.41116 0.24752,-0.49505 0.16364,-0.41115 0.24751,-0.49422 0.24752,-0.41116 0.16364,-0.49175 0.24752,-0.41115 0.16364,-0.41116 0.24752,-0.49504 0.24341,-0.41116 0.16775,-0.49092 0.24341,-0.41116 0.24752,-0.41116 0.24751,-0.49504 0.16365,-0.41116 0.24751,-0.41116 0.24752,-0.49421 0.16364,-0.41116 0.24752,-0.41116 0.24752,-0.41117 0.24341,-0.49174 0.16775,-0.41115 0.2434,-0.41117 0.24752,-0.41116 0.24752,-0.49503 0.24752,-0.41116 0.24752,-0.41116 0.16364,-0.41117 0.24752,-0.41116 0.2434,-0.41116 0.24752,-0.41115 0.24752,-0.49093 0.24752,-0.41116 0.24752,-0.41116 0.2434,-0.41116 0.16775,-0.41116 0.24341,-0.41115 0.24752,-0.41116 0.24752,-0.41116 0.24752,-0.41117 0.24751,-0.41116 0.24341,-0.41115 0.24752,-0.41116 0.24752,-0.41116 0.24751,-0.3314 0.24752,-0.41116 0.24341,-0.41115 0.24752,-0.41117 0.24751,-0.41116 0.24752,-0.41116 0.24752,-0.41116 0.24341,-0.32728 0.24751,-0.41116 0.24752,-0.41116 0.24752,-0.41116 0.32728,-0.33057 0.24752,-0.41116 0.24752,-0.41116 0.24752,-0.41117 0.2434,-0.3281 0.24752,-0.41116 0.24752,-0.41116 0.24752,-0.32728 0.32728,-0.41116 0.24752,-0.33139 0.24752,-0.41116 0.24751,-0.41116 0.24341,-0.32729 0.3314,-0.41116 m -0.3314,0.41116 h 0.24752 l 0.33139,0.0806 h 0.24341 l 0.24752,0.083 h 0.49503 l 0.24752,0.0839 h 0.49093 l 0.33139,0.0798 h 0.24341 l 0.24752,0.0839 h 0.49503 l 0.24752,0.0806 h 0.32728 l 0.24752,0.083 h 0.49093 l 0.33139,0.0839 h 0.49092 l 0.24752,0.0798 h 0.5748 l 0.24752,0.0838 h 0.5748 l 0.24752,0.0806 h 0.24752 l 0.32728,0.083 h 0.49504 l 0.32728,0.0839 h 0.49504 l 0.32728,0.0798 h 0.49504 l 0.32728,0.0838 h 0.82232 l 0.24752,0.0806 h 0.5748 l 0.24751,0.083 h 0.57481 l 0.33139,0.0838 h 0.5748 l 0.24752,0.0798 h 0.90208 l 0.24752,0.0839 h 0.5748 l 0.24752,0.0806 h 0.90619 l 0.24752,0.083 h 0.65457 l 0.24752,0.0838 h 0.90619 l 0.24752,0.0798 h 0.90208 l 0.3314,0.0839 h 0.82232 l 0.32728,0.0806 h 0.9062 l 0.2434,0.083 h 1.23348 l 0.24752,0.0839 h 0.9062 m -11.43271,39.30441 0.16776,-0.49175 0.0798,-0.41116 0.0839,-0.49504 0.0798,-0.49093 0.16775,-0.49503 0.0798,-0.49421 0.0839,-0.49175 0.16364,-0.41116 0.0839,-0.49503 0.0798,-0.49093 0.0839,-0.49504 0.16365,-0.41115 0.0839,-0.49422 0.0798,-0.49175 0.16364,-0.49503 0.0839,-0.41116 0.0839,-0.49093 0.16365,-0.49503 0.0798,-0.41116 0.16775,-0.49421 0.0798,-0.49175 0.0839,-0.41117 0.16364,-0.49503 0.0839,-0.41116 0.16364,-0.49092 0.0798,-0.49505 0.0839,-0.41115 0.16364,-0.49422 0.0839,-0.41115 0.16364,-0.49175 0.0839,-0.41116 0.0798,-0.49504 0.16364,-0.41116 0.0839,-0.49092 0.16364,-0.41116 0.0839,-0.49504 0.16364,-0.41116 0.0838,-0.49422 0.16365,-0.41115 0.0798,-0.41116 0.16775,-0.49175 0.0798,-0.41116 0.16365,-0.49503 0.0838,-0.41116 0.16364,-0.41116 0.0838,-0.49093 0.16364,-0.41116 0.0838,-0.41116 0.16363,-0.41115 0.0798,-0.49505 0.16775,-0.41116 0.0798,-0.41115 0.16365,-0.41116 0.16775,-0.49422 0.0798,-0.41115 0.16365,-0.41117 0.0838,-0.41116 0.16365,-0.41116 0.0838,-0.49175 0.16364,-0.41116 0.16364,-0.41115 0.0838,-0.41116 0.16364,-0.41116 0.0838,-0.41116 0.16364,-0.41116 0.16364,-0.41116 0.0838,-0.41116 0.16364,-0.41116 0.0798,-0.41116 0.16775,-0.41116 0.16364,-0.41116 0.0798,-0.41116 0.16775,-0.41116 0.16364,-0.41116 0.0798,-0.41116 0.16775,-0.41116 0.16364,-0.41116 0.0798,-0.41115 0.16775,-0.41117 0.16363,-0.33057 0.0798,-0.41116 0.16776,-0.41116 0.16363,-0.41116 0.0798,-0.41116 0.16775,-0.3281 0.16364,-0.41116 0.16365,-0.41116 0.0838,-0.32728 0.16365,-0.41117 0.16364,-0.41116 0.0838,-0.41116 m -45.80653,36.50934 0.3314,0.0838 0.32728,0.0798 h 0.41116 l 0.33139,0.0838 h 0.32729 l 0.41115,0.0806 h 0.32729 l 0.33139,0.083 h 0.41116 l 0.32728,0.0839 h 0.3314 l 0.41116,0.0798 h 0.32728 l 0.32728,0.0838 h 0.41116 l 0.3314,0.0806 h 0.41116 l 0.32728,0.083 0.3314,0.0838 h 0.41116 l 0.32728,0.0798 h 0.41116 l 0.32728,0.0838 h 0.74255 l 0.41116,0.0806 h 0.32729 l 0.41116,0.083 h 0.33139 l 0.41116,0.0838 h 0.41116 l 0.32728,0.0798 h 0.41116 l 0.32729,0.0838 h 0.41116 l 0.33139,0.0806 h 0.41116 l 0.41116,0.083 h 0.32728 l 0.41116,0.0838 h 0.74255 l 0.41116,0.0798 h 0.41116 l 0.32729,0.0838 h 0.41116 l 0.41116,0.0806 h 0.73844 l 0.41116,0.083 h 0.41116 l 0.33139,0.0838 h 0.82232 l 0.41116,0.0798 h 0.32728 l 0.41116,0.0838 h 0.82232 l 0.41116,0.0806 h 0.3314 l 0.41116,0.083 h 0.82231 l 0.41116,0.0838 h 0.41116 l 0.32729,0.0798 h 0.82232 l 0.41115,0.0838 h 0.82232 l 0.41116,0.0806 h 0.82232 l 0.41116,0.083 h 0.73844 l 0.41116,0.0838 h 0.82232 l 0.41116,0.0798 h 0.82232 l 0.41116,0.0838 h 0.82232 l 0.41116,0.0806 h 0.82232 l 0.41116,0.083 m 7.73234,13.73191 0.0798,-0.41116 0.0838,-0.32728 0.0838,-0.41116 0.0798,-0.41116 0.0838,-0.33057 0.0798,-0.41116 0.16776,-0.41116 0.0798,-0.32811 0.0838,-0.41116 0.0798,-0.32728 0.0838,-0.41116 0.0838,-0.41116 0.0798,-0.3314 0.0839,-0.41115 0.0798,-0.32729 0.0838,-0.41116 0.0838,-0.41116 0.0798,-0.33057 0.0838,-0.41116 0.0798,-0.32811 0.16776,-0.41116 0.0798,-0.32728 0.0838,-0.41116 0.0798,-0.33139 0.0838,-0.41116 0.0838,-0.32728 0.0798,-0.33058 0.0838,-0.41116 0.0798,-0.3281 0.16775,-0.41116 0.0798,-0.32728 0.0838,-0.41116 0.0798,-0.3314 0.0838,-0.32728 0.0838,-0.41116 0.16365,-0.33058 0.0798,-0.3281 0.0838,-0.41116 0.0839,-0.32728 0.0798,-0.3314 0.0838,-0.41116 0.16365,-0.32728 0.0838,-0.33058 0.0798,-0.41115 0.0838,-0.32811 0.0798,-0.32728 0.16776,-0.3314 0.0798,-0.41116 0.0838,-0.32728 0.0798,-0.33057 0.16775,-0.32811 0.0798,-0.41116 0.0838,-0.32728 0.0798,-0.3314 0.16776,-0.32728 0.0798,-0.33058 0.0838,-0.3281 0.0798,-0.41116 0.16775,-0.32728 0.0798,-0.3314 0.0838,-0.32728 0.0798,-0.33057 0.16776,-0.3281 0.0798,-0.32728 0.0838,-0.3314 0.16364,-0.32728 0.0838,-0.33058 0.0798,-0.3281 0.0838,-0.32729 0.16364,-0.33139 0.0838,-0.32729 0.0798,-0.33057 0.16364,-0.32811 0.0838,-0.32728 0.0838,-0.33139 0.16364,-0.32728 0.0798,-0.33057 0.0838,-0.32811 0.16365,-0.32728 0.0838,-0.24752 0.0798,-0.33057 0.16776,-0.32811 0.0798,-0.32729 0.16364,-0.33139 0.0838,-0.32729 0.0839,-0.24751 0.16363,-0.32728 0.0798,-0.3314 0.0838,-0.32728 0.16365,-0.24752 0.0838,-0.32728 m -36.67707,29.19234 h 0.24752 l 0.32728,0.0798 h 0.24752 l 0.33139,0.0839 h 0.24341 l 0.33139,0.0806 h 0.5748 l 0.24752,0.0831 h 0.24752 l 0.32728,0.0839 h 0.24752 l 0.32728,0.0798 h 0.5748 l 0.24752,0.0839 h 0.3314 l 0.32728,0.0806 h 0.5748 l 0.24752,0.0831 h 0.32728 l 0.24752,0.0839 h 0.65868 l 0.24752,0.0798 h 0.32728 l 0.24752,0.0839 h 0.65867 l 0.24752,0.0806 h 0.65457 l 0.24752,0.0831 h 0.33139 l 0.32728,0.0839 h 0.57481 l 0.33139,0.0798 h 0.5748 l 0.32728,0.0839 h 0.5748 l 0.3314,0.0806 h 0.65868 l 0.2434,0.0831 h 0.3314 l 0.32728,0.0839 h 0.9062 l 0.32728,0.0798 h 0.65868 l 0.32728,0.0839 h 0.57891 l 0.32729,0.0806 h 0.65867 l 0.32729,0.0831 h 0.65867 l 0.24752,0.0839 h 0.98596 l 0.32728,0.0798 h 0.65868 l 0.3314,0.0839 h 0.98596 l 0.32728,0.0806 h 0.57481 l 0.3314,0.0831 h 0.98595 l 0.32728,0.0839 h 0.99008 l 0.32728,0.0798 h 0.98596 m -43.00683,-17.0204 15.04926,14.47447 m 30.67331,-50.57264 5.91989,21.70759 m -17.10507,17.59681 8.14343,13.81496" />
    <path
       inkscape:connector-curvature="0"
       id="path5634"
       style="fill:none;stroke:#000000;stroke-width:1.41347122;stroke-linecap:butt;stroke-linejoin:miter;stroke-miterlimit:10;stroke-dasharray:2.82694237, 2.82694237;stroke-dashoffset:0;stroke-opacity:1"
       d="m -150.29536,-173.38449 h 0.24751 l 0.16365,0.0838 h 0.41116 l 0.24751,0.0806 h 0.41116 l 0.16364,0.083 h 0.65868 l 0.16364,0.0838 h 0.49504 l 0.16364,0.0798 h 0.41116 l 0.24752,0.0838 h 0.65868 l 0.16364,0.0806 h 0.41116 l 0.24751,0.083 h 0.65457 l 0.24752,0.0838 h 0.41116 l 0.16364,0.0798 h 0.65868 l 0.24751,0.0838 h 0.65868 l 0.24752,0.0806 h 0.65457 l 0.24751,0.083 h 0.65868 l 0.24752,0.0839 h 0.65867 l 0.24341,0.0798 h 0.65868 l 0.24752,0.0838 h 0.65867 l 0.24753,0.0806 h 0.90208 l 0.24751,0.083 h 0.90621 l 0.2434,0.0838 h 0.74255 l 0.24752,0.0798 h 0.90209 l 0.24751,0.0838 h 1.14961 l 0.24751,0.0806 h 0.98596 l 0.24753,0.083 h 0.24751 m -31.332,-24.0105 10.93767,22.11874 m -16.44638,30.75722 0.16364,-0.41116 0.16775,-0.33139 0.16364,-0.41116 0.16364,-0.32729 0.0839,-0.41116 0.16364,-0.41116 0.16364,-0.33057 0.16364,-0.41116 0.16364,-0.3281 0.16776,-0.41116 0.16364,-0.32729 0.16364,-0.41115 0.16364,-0.3314 0.16364,-0.41116 0.16775,-0.32728 0.16365,-0.41116 0.16364,-0.33058 0.16364,-0.41116 0.16364,-0.3281 0.16775,-0.32728 0.16364,-0.41116 0.16365,-0.3314 0.16364,-0.41115 0.16364,-0.32729 0.16775,-0.41116 0.16364,-0.33057 0.16365,-0.32811 0.24751,-0.41116 0.16364,-0.32729 0.16365,-0.33138 0.16364,-0.41117 0.16775,-0.32728 0.16364,-0.33057 0.16364,-0.41116 0.16365,-0.3281 0.24751,-0.32729 0.16364,-0.33139 0.16365,-0.41116 0.16775,-0.32728 0.16364,-0.33058 0.16364,-0.3281 0.24752,-0.41116 0.16364,-0.32729 0.16364,-0.33139 0.16364,-0.32728 0.24752,-0.33058 0.16364,-0.3281 0.16776,-0.41116 0.16364,-0.32729 0.24752,-0.33139 0.16364,-0.32729 0.16364,-0.33057 0.16364,-0.32811 0.24752,-0.32728 0.16364,-0.33139 0.16364,-0.32728 0.24752,-0.33057 0.16364,-0.32811 0.16775,-0.32728 0.24341,-0.3314 0.16775,-0.32728 0.16365,-0.33058 0.24751,-0.3281 0.16364,-0.32728 0.24752,-0.3314 0.16364,-0.32728 0.16365,-0.33057 0.24751,-0.32811 0.16365,-0.32728 0.24751,-0.33139 0.16364,-0.32729 0.16365,-0.33057 0.24751,-0.24423 0.16365,-0.3314 0.24751,-0.32728 0.16365,-0.33058 0.24751,-0.3281 0.16364,-0.32728 0.24752,-0.24752 0.16364,-0.33057 0.24752,-0.32811 0.16364,-0.32728 0.24752,-0.24752 0.16364,-0.33057 0.24752,-0.32811 0.16364,-0.24751 0.24752,-0.32728 0.16364,-0.33058 0.24752,-0.24423 0.16364,-0.3314 0.24752,-0.32728" />
    <path
       d="m -189.53755,-203.08202 c 0,-1.43001 -1.15947,-2.58948 -2.58866,-2.58948 -1.4333,0 -2.59277,1.15947 -2.59277,2.58948 0,1.43248 1.15947,2.59195 2.59277,2.59195 1.42919,0 2.58866,-1.15947 2.58866,-2.59195"
       style="fill:#000000;fill-opacity:1;fill-rule:nonzero;stroke:none;stroke-width:0.88341951"
       id="path5640"
       inkscape:connector-curvature="0" />
    <g
       id="g5644"
       style="font-style:normal;font-variant:normal;font-weight:normal;font-stretch:normal;font-size:9.60000038px;line-height:125%;font-family:Arial;-inkscape-font-specification:Sans;letter-spacing:0px;word-spacing:0px;fill:#000000;fill-opacity:1;stroke:none"
       transform="matrix(0.88341949,0,0,0.88341949,-363.3617,-128.98761)">
      <path
         inkscape:connector-curvature="0"
         id="path5642"
         style="font-family:Sans;-inkscape-font-specification:Sans"
         d="m 179.59431,-85.404097 v 2.629687 h 1.19062 c 0.44063,4e-6 0.78125,-0.114058 1.02188,-0.342187 0.24062,-0.228121 0.36093,-0.553121 0.36094,-0.975 -1e-5,-0.418745 -0.12032,-0.742182 -0.36094,-0.970313 -0.24063,-0.228119 -0.58125,-0.342181 -1.02188,-0.342187 h -1.19062 m -0.94688,-0.778125 h 2.1375 c 0.78437,7e-6 1.37656,0.178132 1.77657,0.534375 0.40312,0.353131 0.60468,0.87188 0.60468,1.55625 0,0.690629 -0.20156,1.212504 -0.60468,1.565625 -0.40001,0.353128 -0.9922,0.52969 -1.77657,0.529687 h -1.19062 v 2.812501 h -0.94688 v -6.998438" />
    </g>
    <path
       style="fill:none;stroke:#ff0000;stroke-width:0.69999999;stroke-linecap:butt;stroke-linejoin:miter;stroke-miterlimit:4;stroke-dasharray:none;stroke-opacity:1;marker-start:url(#Arrow2Sstart);marker-end:url(#Arrow2Send)"
       d="m -160.50542,-198.14934 c 6.85082,1.11031 16.78517,2.02231 24.95891,2.42391"
       id="path5661"
       inkscape:connector-curvature="0"
       sodipodi:nodetypes="cc" />
    <path
       style="fill:none;stroke:#ff0000;stroke-width:0.69999999;stroke-linecap:butt;stroke-linejoin:miter;stroke-miterlimit:4;stroke-dasharray:none;stroke-opacity:1;marker-end:url(#marker6813)"
       d="m -149.96622,-165.76782 -39.20266,-34.40647"
       id="path6733"
       inkscape:connector-curvature="0"
       sodipodi:nodetypes="cc" />
    <g
       id="g7033"
       transform="translate(-504.40922,-298.4122)">
      <g
         word-spacing="normal"
         letter-spacing="normal"
         font-size-adjust="none"
         font-stretch="normal"
         font-weight="normal"
         font-variant="normal"
         font-style="normal"
         stroke-miterlimit="10.433"
         xml:space="preserve"
         transform="matrix(0.3,0,0,-0.3,-52.5,222.75)"
         id="content"
         style="font-style:normal;font-variant:normal;font-weight:normal;font-stretch:normal;letter-spacing:normal;word-spacing:normal;text-anchor:start;fill:none;fill-opacity:1;fill-rule:evenodd;stroke:#000000;stroke-linecap:butt;stroke-linejoin:miter;stroke-miterlimit:10.43299961;stroke-dasharray:none;stroke-dashoffset:0;stroke-opacity:1"><path
           id="path7030"
           d="m 1252.8,380.47 v 0.01 0 0.01 0.01 0.01 0.01 0.02 0.02 0.02 0.02 0.02 0.02 0.03 0.02 0.02 0.03 l -0.1,0.02 v 0.03 0.02 0.03 0.02 0.01 l -0.1,0.01 v 0.01 0.01 0.01 0.01 0.01 l -0.1,0.01 v 0.01 0.01 0.01 0 0.01 l -0.1,0.01 v 0 0.01 0 l -0.1,0.01 v 0 0 0.01 h -0.1 v 0 0 c -0.8,0 -5.5,-0.45 -6.3,-0.55 -0.5,-0.04 -0.7,-0.29 -0.7,-0.95 0,-0.59 0.4,-0.59 1.2,-0.59 2.4,0 2.4,-0.35 2.4,-0.85 l -0.1,-1 -3,-11.81 c -0.9,1.84 -2.3,3.19 -4.6,3.19 l 0.1,-1.1 c 3.2,0 3.9,-4.07 3.9,-4.37 0,-0.31 -0.1,-0.61 -0.1,-0.86 l -2.5,-9.77 c -0.3,-0.89 -0.3,-0.98 -1,-1.84 -2.2,-2.73 -4.3,-3.53 -5.7,-3.53 -2.4,0 -3.1,2.73 -3.1,4.69 0,2.48 1.5,8.61 2.7,10.9 1.5,2.94 3.8,4.78 5.8,4.78 l -0.1,1.1 c -5.8,0 -12,-7.32 -12,-14.6 0,-4.68 2.8,-7.97 6.7,-7.97 0.9,0 3.4,0.21 6.4,3.74 0.4,-2.09 2.2,-3.74 4.6,-3.74 1.7,0 2.8,1.15 3.6,2.74 0.9,1.8 1.5,4.84 1.5,4.94 0,0.5 -0.4,0.5 -0.6,0.5 -0.5,0 -0.5,-0.21 -0.7,-0.91 -0.8,-3.23 -1.7,-6.17 -3.7,-6.17 -1.4,0 -1.5,1.3 -1.5,2.3 0,1.18 0,1.54 0.3,2.39 z"
           inkscape:connector-curvature="0"
           style="fill:#000000;stroke-width:0" /></g>    </g>
    <g
       id="g7084"
       transform="translate(-463.96577,-322.22471)">
      <g
         word-spacing="normal"
         letter-spacing="normal"
         font-size-adjust="none"
         font-stretch="normal"
         font-weight="normal"
         font-variant="normal"
         font-style="normal"
         stroke-miterlimit="10.433"
         xml:space="preserve"
         transform="matrix(0.3,0,0,-0.3,-52.5,222.75)"
         id="g7082"
         style="font-style:normal;font-variant:normal;font-weight:normal;font-stretch:normal;letter-spacing:normal;word-spacing:normal;text-anchor:start;fill:none;fill-opacity:1;fill-rule:evenodd;stroke:#000000;stroke-linecap:butt;stroke-linejoin:miter;stroke-miterlimit:10.43299961;stroke-dasharray:none;stroke-dashoffset:0;stroke-opacity:1"><path
           id="path7078"
           d="m 1228.7,376.58 0.1,0.17 v 0.15 0.16 l 0.1,0.14 v 0.14 l 0.1,0.13 v 0.12 l 0.1,0.12 v 0.11 l 0.1,0.1 0.1,0.1 v 0.09 l 0.1,0.09 0.1,0.08 0.1,0.08 0.2,0.07 0.1,0.06 0.1,0.06 0.2,0.06 0.2,0.05 0.1,0.02 0.1,0.02 0.1,0.02 0.1,0.02 0.1,0.02 0.1,0.02 0.1,0.02 0.2,0.01 0.1,0.02 0.1,0.01 0.2,0.01 0.1,0.01 0.2,0.01 0.1,0.01 0.2,0.01 0.1,0.01 0.2,0.01 h 0.2 l 0.2,0.01 h 0.2 0.2 0.2 l 0.2,0.01 h 0.2 c 1.5,0 1.9,0 1.9,0.95 0,0.59 -0.6,0.59 -0.8,0.59 -1.7,0 -5.7,-0.15 -7.4,-0.15 -1.5,0 -5.1,0.15 -6.6,0.15 -0.4,0 -1,0 -1,-1 0,-0.54 0.5,-0.54 1.4,-0.54 0.1,0 1.1,0 1.9,-0.1 0.9,-0.11 1.4,-0.15 1.4,-0.79 0,-0.21 -0.1,-0.36 -0.2,-0.96 l -6.7,-26.75 c -0.5,-1.95 -0.6,-2.34 -4.5,-2.34 -0.9,0 -1.4,0 -1.4,-1 0,-0.55 0.5,-0.55 1.4,-0.55 h 23 c 1.2,0 1.3,0 1.6,0.85 l 3.9,10.76 c 0.2,0.55 0.2,0.64 0.2,0.7 0,0.19 -0.1,0.55 -0.6,0.55 -0.4,0 -0.5,-0.25 -0.8,-1.05 -1.7,-4.59 -3.9,-10.26 -12.5,-10.26 h -4.7 c -0.7,0 -0.8,0 -1.1,0.05 -0.5,0.04 -0.7,0.09 -0.7,0.5 0,0.14 0,0.25 0.3,1.14 z"
           inkscape:connector-curvature="0"
           style="fill:#000000;stroke-width:0" /><path
           id="path7080"
           d="m 1258.1,348.85 0.3,-0.76 0.4,-0.77 0.3,-0.78 0.3,-0.78 0.4,-0.78 0.3,-0.76 0.1,-0.37 0.2,-0.36 0.1,-0.36 0.2,-0.34 0.1,-0.34 0.2,-0.32 0.1,-0.31 0.1,-0.3 0.1,-0.29 0.2,-0.27 0.1,-0.25 0.1,-0.23 0.1,-0.22 0.1,-0.19 v -0.18 l 0.1,-0.15 0.1,-0.13 v -0.11 l 0.1,-0.08 v -0.06 c 0.7,-0.82 1.3,-0.82 1.9,-0.82 h 0.7 c 0.6,0 1,0 1,0.4 0,0.19 -0.1,0.28 -0.2,0.36 -0.4,0.38 -0.8,1.19 -0.9,1.5 l -8.5,20.06 c -0.2,0.63 -0.9,2.21 -4.6,2.21 -0.4,0 -0.9,0 -0.9,-0.5 0,-0.41 0.3,-0.46 0.5,-0.49 0.7,-0.09 1.4,-0.2 2.2,-2.19 l 4.2,-9.76 -10.3,-9.27 c -0.4,-0.34 -0.7,-0.62 -0.7,-1.22 0,-0.82 0.7,-1.18 1.2,-1.18 0.7,0 1.1,0.45 1.2,0.56 z"
           inkscape:connector-curvature="0"
           style="fill:#000000;stroke-width:0" /></g>    </g>
    <g
       id="g7140"
       transform="translate(-436.94047,-271.10342)">
      <g
         word-spacing="normal"
         letter-spacing="normal"
         font-size-adjust="none"
         font-stretch="normal"
         font-weight="normal"
         font-variant="normal"
         font-style="normal"
         stroke-miterlimit="10.433"
         xml:space="preserve"
         transform="matrix(0.3,0,0,-0.3,-52.5,222.75)"
         id="g7138"
         style="font-style:normal;font-variant:normal;font-weight:normal;font-stretch:normal;letter-spacing:normal;word-spacing:normal;text-anchor:start;fill:none;fill-opacity:1;fill-rule:evenodd;stroke:#000000;stroke-linecap:butt;stroke-linejoin:miter;stroke-miterlimit:10.43299961;stroke-dasharray:none;stroke-dashoffset:0;stroke-opacity:1"><path
           id="path7134"
           d="m 1228.6,376.58 v 0.17 l 0.1,0.15 v 0.16 l 0.1,0.14 v 0.14 0.13 l 0.1,0.12 0.1,0.12 v 0.11 l 0.1,0.1 v 0.1 l 0.1,0.09 0.1,0.09 0.1,0.08 0.1,0.08 0.1,0.07 0.2,0.06 0.1,0.06 0.2,0.06 0.2,0.05 0.1,0.02 0.1,0.02 0.1,0.02 0.1,0.02 0.1,0.02 0.1,0.02 0.1,0.02 0.1,0.01 0.2,0.02 0.1,0.01 0.1,0.01 0.2,0.01 0.1,0.01 0.2,0.01 0.2,0.01 0.1,0.01 0.2,0.01 h 0.2 l 0.2,0.01 h 0.2 0.2 0.2 l 0.2,0.01 h 0.2 c 1.5,0 1.9,0 1.9,0.95 0,0.59 -0.6,0.59 -0.8,0.59 -1.7,0 -5.8,-0.15 -7.4,-0.15 -1.5,0 -5.1,0.15 -6.6,0.15 -0.4,0 -1,0 -1,-1 0,-0.54 0.5,-0.54 1.4,-0.54 0.1,0 1.1,0 1.9,-0.1 0.9,-0.11 1.4,-0.15 1.4,-0.79 0,-0.21 -0.1,-0.36 -0.2,-0.96 l -6.7,-26.75 c -0.5,-1.95 -0.6,-2.34 -4.6,-2.34 -0.8,0 -1.3,0 -1.3,-1 0,-0.55 0.4,-0.55 1.3,-0.55 h 23.1 c 1.2,0 1.3,0 1.6,0.85 l 3.9,10.76 c 0.2,0.55 0.2,0.64 0.2,0.7 0,0.19 -0.2,0.55 -0.6,0.55 -0.5,0 -0.5,-0.25 -0.8,-1.05 -1.8,-4.59 -3.9,-10.26 -12.6,-10.26 h -4.6 c -0.7,0 -0.8,0 -1.1,0.05 -0.5,0.04 -0.7,0.09 -0.7,0.5 0,0.14 0,0.25 0.3,1.14 z"
           inkscape:connector-curvature="0"
           style="fill:#000000;stroke-width:0" /><path
           id="path7136"
           d="m 1261.1,362.61 v 0.02 0.02 0.02 0.02 0.02 l -0.1,0.02 v 0.02 0.01 0.02 0.01 0.02 0.01 0.02 0.01 0.01 0.01 0.02 0.01 0.01 0.01 l -0.1,0.02 v 0.02 0.01 0.02 0.01 l -0.1,0.01 v 0.01 0.01 0.01 h -0.1 v 0.01 0 0.01 h -0.1 v 0 0 0 l -0.1,0.01 v 0 0 0 0 c -0.6,0 -0.6,-0.19 -0.7,-0.77 l -2,-7.98 c -6.2,-0.28 -11.4,-4.71 -11.4,-9.38 0,-3.94 3.5,-6.31 7.4,-6.45 l 0.3,0.98 c -2.7,0.14 -5.2,1.6 -5.2,4.88 0,3.48 2.7,8.4 8.6,8.95 l -3.4,-13.83 -0.3,-0.98 c -0.3,-1.08 -0.5,-2.19 -0.8,-3.27 -0.4,-1.64 -0.7,-2.92 -0.7,-3.03 0,-0.42 0.4,-0.42 0.5,-0.42 0.6,0 0.6,0.11 0.8,0.84 l 1.4,5.85 c 6,0.25 11.5,4.64 11.5,9.37 0,3.66 -3.2,6.28 -7.5,6.46 l -0.3,-0.99 c 2.7,-0.09 5.2,-1.56 5.2,-4.87 0,-3.8 -3,-8.47 -8.6,-8.96 l 3.4,13.83 0.3,0.99 z"
           inkscape:connector-curvature="0"
           style="fill:#000000;stroke-width:0" /></g>    </g>
    <path
       style="fill:none;stroke:#ff0000;stroke-width:0.69999999;stroke-linecap:butt;stroke-linejoin:miter;stroke-miterlimit:4;stroke-dasharray:none;stroke-opacity:1;marker-start:url(#marker7728);marker-end:url(#Arrow1Send)"
       d="m -135.93501,-139.55278 c 1.03943,-5.76414 6.47456,-25.06955 8.96155,-31.4101"
       id="path7700"
       inkscape:connector-curvature="0"
       sodipodi:nodetypes="cc" />
    <path
       inkscape:connector-curvature="0"
       id="path7874"
       style="fill:#4d4d4d;fill-opacity:1;fill-rule:nonzero;stroke:none;stroke-width:0.88341951"
       d="m -146.79657,-165.63416 c 0,-1.43001 -1.15947,-2.58948 -2.58866,-2.58948 -1.4333,0 -2.59277,1.15947 -2.59277,2.58948 0,1.43248 1.15947,2.59195 2.59277,2.59195 1.42919,0 2.58866,-1.15947 2.58866,-2.59195" />
    <path
       d="m -91.832616,-157.10174 0.16775,-0.41116 0.24341,-0.49422 0.16775,-0.49175 0.16364,-0.49503 0.24752,-0.41116 0.16364,-0.49092 0.16364,-0.49504 0.24752,-0.41116 0.16364,-0.49421 0.24752,-0.49175 0.16364,-0.41116 0.24752,-0.49503 0.163637,-0.49093 0.24752,-0.41116 0.16364,-0.49503 0.16364,-0.41116 0.24752,-0.49422 0.24752,-0.49175 0.16364,-0.41115 0.24752,-0.49504 0.16364,-0.41117 0.24752,-0.49091 0.16364,-0.41116 0.24752,-0.49505 0.16364,-0.41115 0.24751,-0.49422 0.24752,-0.41116 0.16364,-0.49175 0.24752,-0.41115 0.16364,-0.41116 0.24752,-0.49504 0.24341,-0.41116 0.16775,-0.49092 0.24341,-0.41116 0.24752,-0.41116 0.24751,-0.49504 0.16365,-0.41116 0.247507,-0.41116 0.24752,-0.49421 0.16364,-0.41116 0.24752,-0.41116 0.24752,-0.41117 0.24341,-0.49174 0.16775,-0.41115 0.2434,-0.41117 0.24752,-0.41116 0.24752,-0.49503 0.24752,-0.41116 0.24752,-0.41116 0.16364,-0.41117 0.24752,-0.41116 0.2434,-0.41116 0.24752,-0.41115 0.24752,-0.49093 0.24752,-0.41116 0.24752,-0.41116 0.2434,-0.41116 0.16775,-0.41116 0.24341,-0.41115 0.24752,-0.41116 0.247517,-0.41116 0.24752,-0.41117 0.24751,-0.41116 0.24341,-0.41115 0.24752,-0.41116 0.24752,-0.41116 0.24751,-0.3314 0.24752,-0.41116 0.24341,-0.41115 0.24752,-0.41117 0.24751,-0.41116 0.24752,-0.41116 0.24752,-0.41116 0.24341,-0.32728 0.24751,-0.41116 0.24752,-0.41116 0.24752,-0.41116 0.32728,-0.33057 0.24752,-0.41116 0.24752,-0.41116 0.24752,-0.41117 0.243397,-0.3281 0.24752,-0.41116 0.24752,-0.41116 0.24752,-0.32728 0.32728,-0.41116 0.24752,-0.33139 0.24752,-0.41116 0.24751,-0.41116 0.24341,-0.32729 0.3314,-0.41116 m -0.3314,0.41116 h 0.24752 l 0.33139,0.0806 h 0.24341 l 0.24752,0.083 h 0.49503 l 0.24752,0.0839 h 0.49093 l 0.33139,0.0798 h 0.24341 l 0.247517,0.0839 h 0.49503 l 0.24752,0.0806 h 0.32728 l 0.24752,0.083 h 0.49093 l 0.33139,0.0839 h 0.49092 l 0.24752,0.0798 h 0.5748 l 0.24752,0.0838 h 0.5748 l 0.24752,0.0806 h 0.24752 l 0.32728,0.083 h 0.495037 l 0.32728,0.0839 h 0.49504 l 0.32728,0.0798 h 0.49504 l 0.32728,0.0838 h 0.82232 l 0.24752,0.0806 h 0.5748 l 0.24751,0.083 h 0.57481 l 0.33139,0.0838 h 0.574797 l 0.24752,0.0798 h 0.90208 l 0.24752,0.0839 h 0.5748 l 0.24752,0.0806 h 0.90619 l 0.24752,0.083 h 0.65457 l 0.24752,0.0838 h 0.906187 l 0.24752,0.0798 h 0.90208 l 0.3314,0.0839 h 0.82232 l 0.32728,0.0806 h 0.9062 l 0.2434,0.083 h 1.233477 l 0.24752,0.0839 h 0.9062 m -11.432704,39.30441 0.16776,-0.49175 0.0798,-0.41116 0.0839,-0.49504 0.0798,-0.49093 0.16775,-0.49503 0.0798,-0.49421 0.0839,-0.49175 0.16364,-0.41116 0.0839,-0.49503 0.0798,-0.49093 0.0839,-0.49504 0.16365,-0.41115 0.0839,-0.49422 0.0798,-0.49175 0.16364,-0.49503 0.0839,-0.41116 0.0839,-0.49093 0.16365,-0.49503 0.0798,-0.41116 0.16775,-0.49421 0.0798,-0.49175 0.0839,-0.41117 0.16364,-0.49503 0.0839,-0.41116 0.16364,-0.49092 0.0798,-0.49505 0.0839,-0.41115 0.16364,-0.49422 0.0839,-0.41115 0.16364,-0.49175 0.0839,-0.41116 0.0798,-0.49504 0.16364,-0.41116 0.0839,-0.49092 0.16364,-0.41116 0.0839,-0.49504 0.16364,-0.41116 0.0838,-0.49422 0.16365,-0.41115 0.0798,-0.41116 0.16775,-0.49175 0.0798,-0.41116 0.163647,-0.49503 0.0838,-0.41116 0.16364,-0.41116 0.0838,-0.49093 0.16364,-0.41116 0.0838,-0.41116 0.16363,-0.41115 0.0798,-0.49505 0.16775,-0.41116 0.0798,-0.41115 0.16365,-0.41116 0.16775,-0.49422 0.0798,-0.41115 0.16365,-0.41117 0.0838,-0.41116 0.16365,-0.41116 0.0838,-0.49175 0.16364,-0.41116 0.16364,-0.41115 0.0838,-0.41116 0.16364,-0.41116 0.0838,-0.41116 0.16364,-0.41116 0.16364,-0.41116 0.0838,-0.41116 0.16364,-0.41116 0.0798,-0.41116 0.16775,-0.41116 0.16364,-0.41116 0.0798,-0.41116 0.16775,-0.41116 0.16364,-0.41116 0.0798,-0.41116 0.16775,-0.41116 0.16364,-0.41116 0.0798,-0.41115 0.16775,-0.41117 0.16363,-0.33057 0.0798,-0.41116 0.16776,-0.41116 0.16363,-0.41116 0.0798,-0.41116 0.16775,-0.3281 0.16364,-0.41116 0.16365,-0.41116 0.0838,-0.32728 0.16365,-0.41117 0.16364,-0.41116 0.0838,-0.41116 m -45.806506,36.50934 0.3314,0.0838 0.32728,0.0798 h 0.41116 l 0.33139,0.0838 h 0.32729 l 0.41115,0.0806 h 0.327287 l 0.33139,0.083 h 0.41116 l 0.32728,0.0839 h 0.3314 l 0.41116,0.0798 h 0.32728 l 0.32728,0.0838 h 0.41116 l 0.3314,0.0806 h 0.41116 l 0.32728,0.083 0.3314,0.0838 h 0.41116 l 0.32728,0.0798 h 0.411157 l 0.32728,0.0838 h 0.74255 l 0.41116,0.0806 h 0.32729 l 0.41116,0.083 h 0.33139 l 0.41116,0.0838 h 0.41116 l 0.32728,0.0798 h 0.41116 l 0.32729,0.0838 h 0.41116 l 0.331387,0.0806 h 0.41116 l 0.41116,0.083 h 0.32728 l 0.41116,0.0838 h 0.74255 l 0.41116,0.0798 h 0.41116 l 0.32729,0.0838 h 0.41116 l 0.41116,0.0806 h 0.73844 l 0.411157,0.083 h 0.41116 l 0.33139,0.0838 h 0.82232 l 0.41116,0.0798 h 0.32728 l 0.41116,0.0838 h 0.82232 l 0.41116,0.0806 h 0.3314 l 0.41116,0.083 h 0.822307 l 0.41116,0.0838 h 0.41116 l 0.32729,0.0798 h 0.82232 l 0.41115,0.0838 h 0.82232 l 0.41116,0.0806 h 0.82232 l 0.41116,0.083 h 0.738437 l 0.41116,0.0838 h 0.82232 l 0.41116,0.0798 h 0.82232 l 0.41116,0.0838 h 0.82232 l 0.41116,0.0806 h 0.822317 l 0.41116,0.083 m 7.73234,13.73191 0.0798,-0.41116 0.0838,-0.32728 0.0838,-0.41116 0.0798,-0.41116 0.0838,-0.33057 0.0798,-0.41116 0.16776,-0.41116 0.0798,-0.32811 0.0838,-0.41116 0.0798,-0.32728 0.0838,-0.41116 0.0838,-0.41116 0.0798,-0.3314 0.0839,-0.41115 0.0798,-0.32729 0.0838,-0.41116 0.0838,-0.41116 0.0798,-0.33057 0.0838,-0.41116 0.0798,-0.32811 0.16776,-0.41116 0.0798,-0.32728 0.0838,-0.41116 0.0798,-0.33139 0.0838,-0.41116 0.0838,-0.32728 0.0798,-0.33058 0.0838,-0.41116 0.0798,-0.3281 0.16775,-0.41116 0.0798,-0.32728 0.0838,-0.41116 0.0798,-0.3314 0.0838,-0.32728 0.0838,-0.41116 0.16365,-0.33058 0.0798,-0.3281 0.0838,-0.41116 0.0839,-0.32728 0.0798,-0.3314 0.0838,-0.41116 0.16365,-0.32728 0.0838,-0.33058 0.0798,-0.41115 0.0838,-0.32811 0.0798,-0.32728 0.16776,-0.3314 0.0798,-0.41116 0.0838,-0.32728 0.0798,-0.33057 0.16775,-0.32811 0.0798,-0.41116 0.0838,-0.32728 0.0798,-0.3314 0.16776,-0.32728 0.0798,-0.33058 0.0838,-0.3281 0.0798,-0.41116 0.16775,-0.32728 0.0798,-0.3314 0.0838,-0.32728 0.0798,-0.33057 0.16776,-0.3281 0.0798,-0.32728 0.0838,-0.3314 0.16364,-0.32728 0.0838,-0.33058 0.0798,-0.3281 0.0838,-0.32729 0.16364,-0.33139 0.0838,-0.32729 0.0798,-0.33057 0.16364,-0.32811 0.0838,-0.32728 0.0838,-0.33139 0.163637,-0.32728 0.0798,-0.33057 0.0838,-0.32811 0.16365,-0.32728 0.0838,-0.24752 0.0798,-0.33057 0.16776,-0.32811 0.0798,-0.32729 0.16364,-0.33139 0.0838,-0.32729 0.0839,-0.24751 0.16363,-0.32728 0.0798,-0.3314 0.0838,-0.32728 0.16365,-0.24752 0.0838,-0.32728 m -36.677055,29.19234 h 0.24752 l 0.32728,0.0798 h 0.24752 l 0.33139,0.0839 h 0.24341 l 0.33139,0.0806 h 0.5748 l 0.24752,0.0831 h 0.24752 l 0.32728,0.0839 h 0.247517 l 0.32728,0.0798 h 0.5748 l 0.24752,0.0839 h 0.3314 l 0.32728,0.0806 h 0.5748 l 0.24752,0.0831 h 0.32728 l 0.24752,0.0839 h 0.65868 l 0.24752,0.0798 h 0.32728 l 0.24752,0.0839 h 0.658667 l 0.24752,0.0806 h 0.65457 l 0.24752,0.0831 h 0.33139 l 0.32728,0.0839 h 0.57481 l 0.33139,0.0798 h 0.5748 l 0.32728,0.0839 h 0.5748 l 0.3314,0.0806 h 0.658677 l 0.2434,0.0831 h 0.3314 l 0.32728,0.0839 h 0.9062 l 0.32728,0.0798 h 0.65868 l 0.32728,0.0839 h 0.57891 l 0.32729,0.0806 h 0.65867 l 0.32729,0.0831 h 0.658667 l 0.24752,0.0839 h 0.98596 l 0.32728,0.0798 h 0.65868 l 0.3314,0.0839 h 0.98596 l 0.32728,0.0806 h 0.57481 l 0.3314,0.0831 h 0.985963 l 0.32728,0.0839 h 0.99008 l 0.32728,0.0798 h 0.98596 m -43.006822,-17.0204 15.049251,14.47447 m 30.673298,-50.57264 5.919887,21.70759 m -17.105067,17.59681 8.143443,13.81496"
       style="fill:none;stroke:#000000;stroke-width:1.41347122;stroke-linecap:butt;stroke-linejoin:miter;stroke-miterlimit:10;stroke-dasharray:none;stroke-opacity:1"
       id="path8026"
       inkscape:connector-curvature="0" />
    <path
       style="fill:none;stroke:#000000;stroke-width:0.5;stroke-linecap:butt;stroke-linejoin:miter;stroke-miterlimit:4;stroke-dasharray:1.5, 1.5;stroke-dashoffset:0;stroke-opacity:1"
       d="m -81.880922,-178.3184 c 6.142117,0.94494 22.089058,2.55912 30.015122,2.79813 l 7.894807,15.37537"
       id="path8030"
       inkscape:connector-curvature="0"
       sodipodi:nodetypes="cc" />
    <path
       style="fill:none;stroke:#000000;stroke-width:0.5;stroke-linecap:butt;stroke-linejoin:miter;stroke-miterlimit:4;stroke-dasharray:1.5, 1.5;stroke-dashoffset:0;stroke-opacity:1"
       d="m -58.939874,-194.18924 c -5.879927,8.81989 -13.400294,26.96821 -15.540071,39.05938 l 8.221884,13.73509"
       id="path8034"
       inkscape:connector-curvature="0"
       sodipodi:nodetypes="cc" />
    <g
       id="g8090"
       transform="translate(-423.24557,-290.23166)">
      <g
         word-spacing="normal"
         letter-spacing="normal"
         font-size-adjust="none"
         font-stretch="normal"
         font-weight="normal"
         font-variant="normal"
         font-style="normal"
         stroke-miterlimit="10.433"
         xml:space="preserve"
         transform="matrix(0.3,0,0,-0.3,-52.5,222.75)"
         id="g8088"
         style="font-style:normal;font-variant:normal;font-weight:normal;font-stretch:normal;letter-spacing:normal;word-spacing:normal;text-anchor:start;fill:none;fill-opacity:1;fill-rule:evenodd;stroke:#000000;stroke-linecap:butt;stroke-linejoin:miter;stroke-miterlimit:10.43299961;stroke-dasharray:none;stroke-dashoffset:0;stroke-opacity:1"><path
           id="path8086"
           d="m 1251.4,362.74 0.4,-0.33 0.4,-0.32 0.4,-0.31 0.4,-0.3 0.5,-0.28 0.4,-0.27 0.4,-0.26 0.4,-0.25 0.4,-0.23 0.4,-0.22 0.4,-0.21 0.4,-0.2 0.4,-0.19 0.3,-0.17 0.2,-0.08 0.2,-0.08 0.1,-0.07 0.2,-0.08 c -1.8,-0.79 -4.2,-2.09 -6.3,-3.82 h -31.6 c -0.9,0 -1.8,0 -1.8,-1 0,-1 0.9,-1 1.7,-1 h 29.5 c -2.4,-2.3 -5,-6.68 -5,-7.33 0,-0.55 0.6,-0.55 0.9,-0.55 0.4,0 0.8,0 1,0.41 1,1.89 2.4,4.53 5.7,7.42 3.4,3.03 6.7,4.37 9.3,5.12 0.9,0.3 0.9,0.36 1,0.46 0.1,0.04 0.1,0.2 0.1,0.29 0,0.11 0,0.21 0,0.3 l -0.2,0.11 c -0.1,0.05 -0.1,0.09 -1.1,0.39 -6.7,2 -11.7,6.53 -14.5,11.86 -0.5,1 -0.6,1.05 -1.3,1.05 -0.3,0 -0.9,0 -0.9,-0.55 0,-0.66 2.5,-4.98 5,-7.33 h -29.5 c -0.8,0 -1.7,0 -1.7,-1 0,-0.98 0.9,-0.98 1.8,-0.98 z"
           inkscape:connector-curvature="0"
           style="fill:#000000;stroke-width:0" /></g>    </g>
  </g>
</svg>
